<svg xmlns="http://www.w3.org/2000/svg" viewBox="0 0 1130 138" width="1130" height="138"><defs><style type="text/css">@import url('https://fonts.googleapis.com/css?family=Roboto+Mono:400|Roboto:400,&amp;subset=cyrillic,cyrillic-ext,greek,greek-ext,latin-ext')</style></defs><g transform="translate(5,5)"><g><g><g transform="translate(0, 0)"><path d="M84.42283553372465 36.42283553372465 A39 39 0 0 1 112 25 A39 39 0 0 1 139.57716446627535 36.42283553372465 A39 39 0 0 1 151 64 A39 39 0 0 1 139.57716446627535 91.57716446627535 A39 39 0 0 1 112 103 A39 39 0 0 1 84.42283553372465 91.57716446627535 A39 39 0 0 1 73 64 A39 39 0 0 1 84.42283553372465 36.42283553372465 Z" fill="#ffffff" stroke="#52565F" stroke-width="2"/><g transform="translate(83, 35)"><text font-size="14" font-family="Roboto,sans-serif" x="29" y="35" text-anchor="middle" fill="#52565f">Start</text></g></g><g transform="translate(224, 0)"><path d="M31.5 28 L112 28 L192.5 28 C194.5 28 196 29.5 196 31.5 L196 64 L196 96.5 C196 98.5 194.5 100 192.5 100 L112 100 L31.5 100 C29.5 100 28 98.5 28 96.5 L28 64 L28 31.5 C28 29.5 29.5 28 31.5 28 Z" fill="#ffffff" stroke="#FFD663" stroke-width="2"/><g transform="translate(36, 34)"><text font-size="14" font-family="Roboto,sans-serif" x="76" y="25" text-anchor="middle" fill="#52565f">Landing Page - User</text><text font-size="14" font-family="Roboto,sans-serif" x="76" y="45" text-anchor="middle" fill="#52565f">enters story title and body</text></g></g><g transform="translate(448, 0)"><path d="M64 28 L112 28 L160 28 C182 28 196 42 196 64 L196 64 L196 64 C196 86 182 100 160 100 L112 100 L64 100 C42 100 28 86 28 64 L28 64 L28 64 C28 42 42 28 64 28 Z" fill="#76E27A" stroke="#4d9ef6" stroke-width="2"/><g transform="translate(36, 34)"><text font-size="14" font-family="Roboto,sans-serif" x="76" y="35" text-anchor="middle" fill="#FFFFFF">Submit</text></g></g><g transform="translate(672, 0)"><path d="M31.5 28 L112 28 L192.5 28 C194.5 28 196 29.5 196 31.5 L196 64 L196 96.5 C196 98.5 194.5 100 192.5 100 L112 100 L31.5 100 C29.5 100 28 98.5 28 96.5 L28 64 L28 31.5 C28 29.5 29.5 28 31.5 28 Z" fill="#ffffff" stroke="#FFD663" stroke-width="2"/><g transform="translate(36, 34)"><text font-size="14" font-family="Roboto,sans-serif" x="76" y="25" text-anchor="middle" fill="#52565f">User gets an alert on</text><text font-size="14" font-family="Roboto,sans-serif" x="76" y="45" text-anchor="middle" fill="#52565f">status of request</text></g></g><g transform="translate(896, 0)"><path d="M84.42283553372465 36.42283553372465 A39 39 0 0 1 112 25 A39 39 0 0 1 139.57716446627535 36.42283553372465 A39 39 0 0 1 151 64 A39 39 0 0 1 139.57716446627535 91.57716446627535 A39 39 0 0 1 112 103 A39 39 0 0 1 84.42283553372465 91.57716446627535 A39 39 0 0 1 73 64 A39 39 0 0 1 84.42283553372465 36.42283553372465 Z" fill="#ffffff" stroke="#52565F" stroke-width="2"/><g transform="translate(83, 35)"><text font-size="14" font-family="Roboto,sans-serif" x="29" y="35" text-anchor="middle" fill="#52565f">End</text></g></g></g><g><g><path fill="none" stroke="#76E27A" stroke-width="2" stroke-dasharray="0px 0px" d="M 152,64L 224,64L 224,64L 249,64"/><path transform="translate( 154, 61 ) rotate( 450 )" d="M3 6C4.65685 6 6 4.65685 6 3C6 1.34315 4.65685 0 3 0C1.34315 0 0 1.34315 0 3C0 4.65685 1.34315 6 3 6Z" fill="#76E27A"/><path transform="translate( 251, 58 ) rotate( 450 )" d="M5.22123 0.365167L0.258049 6.22653C-0.327404 6.91793 0.147757 8 1.03682 8H10.9632C11.8522 8 12.3274 6.91794 11.742 6.22653L6.77877 0.365167C6.36649 -0.121722 5.63351 -0.121723 5.22123 0.365167Z" fill="#76E27A"/></g><g><path fill="none" stroke="#76E27A" stroke-width="2" stroke-dasharray="0px 0px" d="M 421,64L 448,64L 448,64L 473,64"/><path transform="translate( 423, 61 ) rotate( 450 )" d="M3 6C4.65685 6 6 4.65685 6 3C6 1.34315 4.65685 0 3 0C1.34315 0 0 1.34315 0 3C0 4.65685 1.34315 6 3 6Z" fill="#76E27A"/><path transform="translate( 475, 58 ) rotate( 450 )" d="M5.22123 0.365167L0.258049 6.22653C-0.327404 6.91793 0.147757 8 1.03682 8H10.9632C11.8522 8 12.3274 6.91794 11.742 6.22653L6.77877 0.365167C6.36649 -0.121722 5.63351 -0.121723 5.22123 0.365167Z" fill="#76E27A"/></g><g><path fill="none" stroke="#76E27A" stroke-width="2" stroke-dasharray="0px 0px" d="M 645,64L 672,64L 672,64L 697,64"/><path transform="translate( 647, 61 ) rotate( 450 )" d="M3 6C4.65685 6 6 4.65685 6 3C6 1.34315 4.65685 0 3 0C1.34315 0 0 1.34315 0 3C0 4.65685 1.34315 6 3 6Z" fill="#76E27A"/><path transform="translate( 699, 58 ) rotate( 450 )" d="M5.22123 0.365167L0.258049 6.22653C-0.327404 6.91793 0.147757 8 1.03682 8H10.9632C11.8522 8 12.3274 6.91794 11.742 6.22653L6.77877 0.365167C6.36649 -0.121722 5.63351 -0.121723 5.22123 0.365167Z" fill="#76E27A"/></g><g><path fill="none" stroke="#76E27A" stroke-width="2" stroke-dasharray="0px 0px" d="M 869,64L 896,64L 896,64L 966,64"/><path transform="translate( 871, 61 ) rotate( 450 )" d="M3 6C4.65685 6 6 4.65685 6 3C6 1.34315 4.65685 0 3 0C1.34315 0 0 1.34315 0 3C0 4.65685 1.34315 6 3 6Z" fill="#76E27A"/><path transform="translate( 968, 58 ) rotate( 450 )" d="M5.22123 0.365167L0.258049 6.22653C-0.327404 6.91793 0.147757 8 1.03682 8H10.9632C11.8522 8 12.3274 6.91794 11.742 6.22653L6.77877 0.365167C6.36649 -0.121722 5.63351 -0.121723 5.22123 0.365167Z" fill="#76E27A"/></g></g></g></g></svg>