<?xml version="1.0" encoding="UTF-8"?><svg version="1.1" xmlns="http://www.w3.org/2000/svg" xmlns:xlink="http://www.w3.org/1999/xlink" viewBox="0 0 1600 1200" width="1600" height="1200" x="0px" y="0px">
              
              <!-- ITEM 0 -->
<g>
    <defs>
        
        <clipPath id="clip-path-id-viewbox-item-0">
            <rect x="0.0" y="0.0" width="800.0" height="600.0"/>
        </clipPath>
    </defs>
    <g transform="translate(52.0 23.0) rotate(0.0 747.0 560.5) scale(1.8675 1.8683333333333334)">
        <g clip-path="url(#clip-path-id-viewbox-item-0)" transform="translate(-0.0 -0.0)">

<path style="fill:#E0EBFE;" d="M797.707,600l2.128-80.876v-39.235c-2.099-1.563-7.028-5.118-10.339-6.568  c-33.672-14.747-75.668-10.778-111.338,0.526c-35.67,11.303-67.472,29.215-102.005,42.611c-3.287,1.276-7.065,2.53-10.47,1.472  c-5.792-1.799-5.703-8.811-2.038-12.843c3.665-4.032,9.483-6.491,13.359-10.394c8.818-8.88,4.57-22.875-5.693-30.685  s-24.698-10.818-38.602-12.834c-44.911-6.513-91.004-5.655-136.454-2.345c-131.098,9.551-261.7,36.724-377.009,87.807  C8.543,541.378,1.615,544.65,0,545.419V600H797.707z"/>
<path style="fill:#D9E021;" d="M799.835,600v-45.939c-46.528,12.225-106.192,26.678-155.839,34.346  c-50.022,7.726-102.349,9.253-150.12-7.475c-62.626-21.93-113.336-73.685-178.529-86.053c-33.575-6.369-68.206-1.617-101.808,4.605  C137.798,513.509,71.42,533.542,0,562v38C0,600,799.835,600,799.835,600z"/>
<path style="fill:#AFCCFC;" d="M800,392.369l-26.45,40.993c-0.19,0.233-0.403,0.478-0.575,0.737l-52.592,79.151  c-2.865,4.323-2.06,10.855,2.265,13.141h0.002c3.414,3.048,9.779,1.619,11.875-1.348l4.244-6.207  c2.865-4.322,8.518-5.399,12.843-2.351h0.002c4.326,2.286,5.87,8.532,3.005,12.855l-10.239,14.95  c-1.933,3.228-0.29,8.771,3.053,11.057h0.002c3.478,2.286,9.742,1.422,11.932-1.9l9.858-14.138c2.865-4.323,8.61-5.298,12.937-2.25  h0.001c4.326,2.286,5.77,8.303,2.905,12.625l-21.021,31.653l-0.426,0.579c-2.28,3.578-0.525,9.245,2.953,11.531h0.002  c4.326,3.048,10.206,1.685,13.07-2.637L800,560.257V392.369z"/>
<g>
	<path style="fill:#D9E021;" d="M62.81,598.538c-0.112,0-0.225-0.006-0.339-0.019c-1.011-0.107-1.676-0.821-1.694-1.82   c-0.019-1.097,0.795-2.489,1.873-2.642c0.541-0.073,1.265,0.162,1.586,1.057c0.314-0.626,0.497-1.29,0.556-1.522   c19.706-77.738,83.817-189.062,106.005-220.259l1.74,1.237C150.415,405.672,86.498,516.65,66.862,594.115   C66.151,596.914,64.652,598.538,62.81,598.538z M63.174,596.089c-0.062,0.051-0.135,0.169-0.188,0.289   c0.464-0.099,0.837-0.528,1.122-1.026l-1.87,0.504c0.048,0.085,0.189,0.238,0.421,0.297   C62.909,596.219,63.113,596.138,63.174,596.089z"/>
</g>
<g>
	<path style="fill:#D9E021;" d="M96.105,598.878l-2.103-0.363c14.622-84.796,14.671-170.792,0.144-255.599l2.104-0.36   C110.818,427.603,110.769,513.843,96.105,598.878z"/>
</g>
<g>
	<path style="fill:#D9E021;" d="M670.327,599.23c-22.992-41.132-46.863-82.533-70.951-123.052   c-5.691-9.573-13.125-18.075-22.726-25.991l2.036-2.47c9.891,8.154,17.559,16.928,23.441,26.824   c22.783,38.322,45.372,77.431,67.205,116.358l0.428-0.206l3.407,7.061L670.327,599.23z"/>
</g>
<g>
	<path style="fill:#D9E021;" d="M694.538,590.954c-0.459,0-0.925-0.138-1.35-0.416c-0.881-0.573-1.629-1.808-1.282-2.966   c0.213-0.709,0.785-1.211,1.516-1.363c-13.375-29.873-34.104-56.285-54.152-81.827c-2.135-2.72-4.269-5.439-6.392-8.159l2.524-1.97   c2.121,2.718,4.253,5.434,6.386,8.152c20.219,25.761,41.127,52.399,54.66,82.728c1.309,2.934,0.488,4.485-0.431,5.27   C695.588,590.768,695.068,590.954,694.538,590.954z M693.903,587.57l-0.008,1.791c0.329,0.027,0.737-0.196,0.976-0.632   c0.223-0.405,0.144-0.774,0.091-0.856c-0.119-0.123-0.649-0.228-1.023,0.091c-0.001,0.002-0.002,0.003-0.002,0.003   C693.929,587.969,693.953,587.85,693.903,587.57z"/>
</g>
<g>
	<path style="fill:#D9E021;" d="M759.381,587.349c-16.736-23.948-42.005-43.366-64.298-60.498   c-4.923-3.783-9.572-7.356-14.135-10.968l1.987-2.509c4.546,3.597,9.187,7.163,14.1,10.939   c22.477,17.273,47.952,36.851,64.971,61.202L759.381,587.349z"/>
</g>
<g style="opacity:0.27;">
	<polygon style="fill:none;" points="485.556,500.86 477.525,492.829 477.525,597.444 485.556,597.444  "/>
	<polygon style="fill:none;" points="574.293,597.444 574.293,589.596 564.72,580.023 564.72,597.444  "/>
	<polygon style="fill:none;" points="538.798,597.444 538.798,554.101 529.225,544.529 529.225,597.444  "/>
	<polygon style="fill:none;" points="556.546,597.444 556.546,571.849 546.972,562.275 546.972,597.444  "/>
	<polygon style="fill:none;" points="503.303,597.444 503.303,518.607 493.73,509.033 493.73,597.444  "/>
	<polygon style="fill:none;" points="521.051,597.444 521.051,536.355 511.477,526.781 511.477,597.444  "/>
	<polygon style="fill:#D9E021;" points="582.14,597.444 574.293,589.596 574.293,597.444  "/>
	<polygon style="fill:#D9E021;" points="564.72,597.444 564.72,580.023 556.546,571.849 556.546,597.444  "/>
	<polygon style="fill:#D9E021;" points="546.972,597.444 546.972,562.275 538.798,554.101 538.798,597.444  "/>
	<polygon style="fill:#D9E021;" points="529.225,597.444 529.225,544.529 521.051,536.355 521.051,597.444  "/>
	<polygon style="fill:#D9E021;" points="511.477,597.444 511.477,526.781 503.303,518.607 503.303,597.444  "/>
	<polygon style="fill:#D9E021;" points="493.73,597.444 493.73,509.033 485.556,500.86 485.556,597.444  "/>
</g>
<path id="texture-2_12_-i0" style="fill:#A1C3FC;" d="M285.141,440.51c-0.151-0.628-0.792-1.009-1.418-0.857  c-0.628,0.151-1.009,0.792-0.856,1.42c0.151,0.628,0.792,1.009,1.418,0.857l0,0C284.913,441.777,285.3,441.144,285.141,440.51  L285.141,440.51z M212.497,344.798c0.346-0.566,0.166-1.305-0.4-1.649l0,0c-0.507-0.331-1.187-0.188-1.517,0.318  c-0.029,0.039-0.056,0.088-0.073,0.136c-0.344,0.536-0.192,1.244,0.341,1.595C211.412,345.53,212.152,345.361,212.497,344.798  L212.497,344.798L212.497,344.798z M246.171,395.638c0.496-0.431,0.594-1.164,0.229-1.71c-0.402-0.535-1.171-0.64-1.71-0.229  c-0.535,0.402-0.64,1.171-0.229,1.71C244.897,395.9,245.624,396.003,246.171,395.638z M395.392,348.6  c1.026-0.696,1.308-2.086,0.632-3.129c-0.616-1.027-1.945-1.362-2.968-0.753c-0.037,0.023-0.07,0.039-0.1,0.065  c-1.026,0.696-1.308,2.086-0.632,3.129C392.977,348.947,394.354,349.259,395.392,348.6L395.392,348.6z M349.841,378.238  c1.033-0.704,1.293-2.107,0.586-3.135c-0.689-1.011-2.061-1.29-3.086-0.622c-1.039,0.658-1.346,2.029-0.687,3.068l0,0  C347.384,378.576,348.77,378.872,349.841,378.238z M304.186,407.881c1.033-0.663,1.333-2.026,0.671-3.059  c-0.014-0.02-0.029-0.041-0.043-0.062c-0.616-1.027-1.945-1.362-2.968-0.753c-0.037,0.023-0.07,0.039-0.1,0.065  c-1.025,0.719-1.324,2.106-0.688,3.188C301.755,408.276,303.146,408.557,304.186,407.881z M415.224,463.142  c-0.263-1.205-1.45-1.968-2.659-1.699c-1.204,0.261-1.967,1.451-1.699,2.659c0.259,1.18,1.411,1.939,2.598,1.713  C414.673,465.547,415.454,464.362,415.224,463.142L415.224,463.142z M361.737,473.087c-0.263-1.205-1.45-1.968-2.659-1.699  c-1.204,0.261-1.967,1.451-1.699,2.659c0.259,1.18,1.411,1.939,2.598,1.713C361.182,475.498,361.967,474.306,361.737,473.087  L361.737,473.087z M302.904,289.376c0.68-1.039,0.409-2.432-0.626-3.129c-0.994-0.698-2.361-0.448-3.059,0.546  c-0.005,0.006-0.009,0.012-0.014,0.018c-0.735,0.938-0.567,2.291,0.37,3.027c0.045,0.034,0.089,0.067,0.142,0.107  C300.769,290.608,302.148,290.367,302.904,289.376z M272.073,334.229c0.668-1.048,0.421-2.432-0.564-3.184  c-1.039-0.68-2.435-0.402-3.129,0.626c-0.696,1.018-0.436,2.412,0.582,3.105c0.012,0.009,0.026,0.02,0.033,0.024  c0.994,0.698,2.361,0.448,3.054-0.54C272.064,334.241,272.068,334.235,272.073,334.229z M241.301,379.017  c0.697-0.965,0.49-2.311-0.475-3.005c-0.026-0.02-0.057-0.043-0.088-0.056c-0.989-0.735-2.388-0.519-3.122,0.47  c-0.024,0.033-0.044,0.059-0.067,0.089c-0.699,1.035-0.424,2.439,0.602,3.133c1.035,0.699,2.439,0.424,3.133-0.602  C241.292,379.03,241.296,379.023,241.301,379.017z M423.578,515.827c-0.102-1.094-1.063-1.906-2.16-1.826  c-1.096,0.091-1.914,1.058-1.826,2.16c0.087,1.102,1.058,1.914,2.16,1.826l0,0C422.846,517.882,423.659,516.924,423.578,515.827z   M328.566,336.171c0.69-0.892,0.568-2.16-0.283-2.902c-0.816-0.694-2.038-0.596-2.733,0.219c-0.02,0.026-0.034,0.045-0.053,0.071  c-0.728,0.832-0.64,2.096,0.197,2.815c0.012,0.009,0.018,0.014,0.033,0.024C326.579,337.072,327.819,336.979,328.566,336.171  L328.566,336.171z M297.399,373.282c0.69-0.85,0.56-2.096-0.28-2.788c-0.816-0.694-2.038-0.596-2.733,0.219  c-0.02,0.026-0.034,0.045-0.053,0.071c-0.728,0.832-0.64,2.096,0.19,2.822c0.012,0.009,0.018,0.014,0.033,0.024  C295.439,374.293,296.699,374.145,297.399,373.282L297.399,373.282z M266.181,410.565c0.728-0.832,0.64-2.096-0.19-2.822  c-0.012-0.009-0.018-0.014-0.033-0.024c-0.772-0.702-1.969-0.636-2.67,0.136c-0.044,0.046-0.084,0.098-0.122,0.149  c-0.728,0.832-0.64,2.096,0.19,2.822c0.012,0.009,0.018,0.014,0.033,0.024C264.246,411.506,265.475,411.385,266.181,410.565  L266.181,410.565z M373.618,432.6c0.962-0.544,1.321-1.756,0.797-2.732c-0.506-0.975-1.697-1.356-2.671-0.853  c-0.972,0.527-1.376,1.723-0.914,2.726C371.368,432.738,372.604,433.115,373.618,432.6L373.618,432.6z M330.522,455.014  c0.959-0.458,1.371-1.606,0.913-2.565c-0.017-0.032-0.037-0.069-0.05-0.107c-0.506-0.975-1.697-1.356-2.671-0.853  c-0.972,0.527-1.376,1.723-0.914,2.726C328.332,455.179,329.544,455.537,330.522,455.014L330.522,455.014z M233.134,310.909  c0.336-0.996-0.194-2.07-1.186-2.412c-0.042-0.012-0.078-0.03-0.114-0.035c-1.039-0.359-2.18,0.194-2.542,1.237  c-0.008,0.023-0.017,0.048-0.02,0.065c-0.286,1.063,0.312,2.167,1.365,2.508c1.035,0.336,2.144-0.239,2.48-1.275  C233.121,310.97,233.122,310.939,233.134,310.909L233.134,310.909z M218.567,357.257c0.327-1.064-0.248-2.201-1.305-2.562  c-1.077-0.309-2.208,0.312-2.515,1.391c-0.298,1.025,0.258,2.107,1.263,2.47c1.023,0.367,2.16-0.167,2.527-1.191  C218.548,357.335,218.561,357.293,218.567,357.257L218.567,357.257z M465.312,485.56c1.103-0.651,1.51-2.045,0.917-3.187  c-0.602-1.127-1.996-1.563-3.125-0.972c-1.117,0.64-1.526,2.053-0.917,3.187C462.789,485.715,464.183,486.151,465.312,485.56  L465.312,485.56z M415.843,511.948c1.133-0.597,1.563-1.996,0.972-3.125c-0.591-1.129-1.996-1.563-3.125-0.972  c-1.133,0.597-1.563,1.996-0.972,3.125C413.316,512.11,414.715,512.539,415.843,511.948L415.843,511.948z M284.023,334.471  c0.34-1.254-0.355-2.553-1.591-2.958c-1.248-0.335-2.534,0.41-2.863,1.663c-0.323,1.206,0.363,2.448,1.548,2.827  C282.339,336.346,283.619,335.676,284.023,334.471L284.023,334.471z M267.743,388.099c0.344-1.221-0.325-2.5-1.531-2.903  c-1.225-0.379-2.525,0.306-2.903,1.531c-0.379,1.225,0.306,2.525,1.531,2.903C266.061,389.986,267.349,389.303,267.743,388.099  L267.743,388.099z M376.028,414.85c0.757-1.02,0.607-2.453-0.334-3.302c-1.012-0.771-2.451-0.595-3.247,0.395  c-0.819,0.954-0.714,2.393,0.248,3.216c0.012,0.009,0.026,0.02,0.039,0.029C373.728,416.009,375.2,415.858,376.028,414.85  C376.023,414.856,376.028,414.85,376.028,414.85L376.028,414.85z M340.42,458.212c0.818-1.006,0.668-2.479-0.328-3.298  c0,0,0,0-0.006-0.005c-0.968-0.789-2.4-0.639-3.181,0.334l0,0c-0.809,0.981-0.674,2.433,0.303,3.238  C338.164,459.296,339.6,459.166,340.42,458.212L340.42,458.212z M410.877,431.105c0.816-0.966,0.692-2.419-0.28-3.24  c-0.972-0.824-2.419-0.692-3.242,0.279c-0.792,0.946-0.702,2.352,0.213,3.181C408.553,432.175,410.026,432.076,410.877,431.105  L410.877,431.105z M373.682,472.762c0.845-0.975,0.746-2.449-0.225-3.3c-0.952-0.808-2.38-0.732-3.245,0.165  c-0.836,0.992-0.761,2.457,0.164,3.356C371.364,473.807,372.815,473.699,373.682,472.762L373.682,472.762z M299.02,397.579  c0.395-1.222-0.261-2.542-1.476-2.963c-1.195-0.406-2.496,0.226-2.902,1.42c-0.457,1.157,0.107,2.467,1.263,2.925  c0.031,0.014,0.06,0.026,0.097,0.032c1.196,0.458,2.537-0.145,2.987-1.347C299.005,397.628,299.012,397.605,299.02,397.579  L299.02,397.579z"/>
<path id="texture-2_11_-i0" style="fill:#A1C3FC;" d="M23.763,351.41c-0.151-0.628-0.792-1.009-1.418-0.857  c-0.628,0.151-1.009,0.792-0.856,1.42c0.151,0.628,0.792,1.009,1.418,0.857l0,0C23.533,352.678,23.92,352.044,23.763,351.41  L23.763,351.41z M134.013,259.5c1.026-0.696,1.308-2.086,0.632-3.129c-0.616-1.027-1.945-1.362-2.968-0.753  c-0.037,0.023-0.07,0.039-0.1,0.065c-1.026,0.696-1.308,2.086-0.632,3.129C131.598,259.848,132.976,260.16,134.013,259.5  L134.013,259.5z M88.462,289.139c1.033-0.704,1.293-2.107,0.586-3.135c-0.689-1.011-2.061-1.29-3.086-0.622  c-1.039,0.658-1.346,2.029-0.687,3.068l0,0C86.005,289.476,87.391,289.773,88.462,289.139z M42.807,318.781  c1.032-0.663,1.333-2.026,0.671-3.059c-0.014-0.02-0.029-0.041-0.043-0.062c-0.616-1.027-1.945-1.362-2.968-0.753  c-0.037,0.023-0.07,0.039-0.1,0.065c-1.025,0.719-1.324,2.106-0.688,3.188C40.376,319.177,41.767,319.457,42.807,318.781z   M153.845,374.044c-0.263-1.205-1.45-1.968-2.659-1.699c-1.204,0.261-1.967,1.451-1.699,2.659c0.259,1.18,1.411,1.939,2.598,1.713  C153.294,376.448,154.075,375.263,153.845,374.044L153.845,374.044z M100.358,383.988c-0.263-1.205-1.45-1.968-2.659-1.699  c-1.204,0.261-1.966,1.451-1.699,2.659c0.259,1.18,1.411,1.939,2.598,1.713C99.803,386.398,100.588,385.207,100.358,383.988  L100.358,383.988z M41.526,200.276c0.68-1.039,0.409-2.432-0.626-3.129c-0.994-0.698-2.361-0.448-3.059,0.546  c-0.005,0.006-0.009,0.012-0.014,0.018c-0.735,0.938-0.567,2.291,0.37,3.027c0.045,0.034,0.089,0.067,0.142,0.107  C39.39,201.508,40.769,201.268,41.526,200.276z M10.695,245.13c0.668-1.048,0.421-2.432-0.564-3.184  c-1.039-0.68-2.435-0.402-3.129,0.626c-0.696,1.018-0.436,2.412,0.582,3.105c0.012,0.009,0.026,0.02,0.033,0.024  c0.994,0.698,2.361,0.448,3.054-0.54C10.685,245.142,10.69,245.136,10.695,245.13z M162.2,426.728  c-0.102-1.094-1.063-1.906-2.16-1.826c-1.096,0.091-1.914,1.058-1.827,2.16c0.087,1.102,1.058,1.914,2.16,1.826l0,0  C161.467,428.783,162.28,427.824,162.2,426.728z M67.187,247.072c0.69-0.892,0.568-2.16-0.283-2.902  c-0.816-0.694-2.038-0.596-2.733,0.219c-0.02,0.026-0.034,0.045-0.053,0.071c-0.728,0.832-0.64,2.096,0.197,2.815  c0.012,0.009,0.018,0.014,0.033,0.024C65.2,247.973,66.44,247.879,67.187,247.072L67.187,247.072z M36.019,284.183  c0.69-0.85,0.56-2.096-0.28-2.788c-0.816-0.694-2.038-0.596-2.733,0.219c-0.02,0.026-0.034,0.045-0.053,0.071  c-0.728,0.832-0.64,2.096,0.19,2.822c0.012,0.009,0.018,0.014,0.033,0.024C34.06,285.195,35.32,285.045,36.019,284.183  L36.019,284.183z M4.802,321.466c0.728-0.832,0.64-2.096-0.19-2.822c-0.012-0.009-0.018-0.014-0.033-0.024  c-0.772-0.702-1.969-0.636-2.67,0.136c-0.044,0.047-0.084,0.098-0.122,0.149c-0.728,0.832-0.64,2.096,0.19,2.822  c0.012,0.009,0.018,0.014,0.033,0.024C2.867,322.406,4.096,322.285,4.802,321.466L4.802,321.466z M112.238,343.501  c0.962-0.544,1.321-1.756,0.797-2.732c-0.506-0.975-1.697-1.356-2.671-0.853c-0.972,0.527-1.376,1.723-0.914,2.726  C109.989,343.639,111.225,344.016,112.238,343.501L112.238,343.501z M69.143,365.915c0.959-0.458,1.371-1.606,0.913-2.565  c-0.017-0.032-0.037-0.069-0.05-0.107c-0.506-0.975-1.697-1.356-2.671-0.853c-0.972,0.527-1.376,1.723-0.914,2.726  C66.954,366.079,68.165,366.438,69.143,365.915L69.143,365.915z M203.933,396.461c1.103-0.651,1.51-2.045,0.917-3.187  c-0.602-1.127-1.996-1.563-3.125-0.972c-1.117,0.64-1.526,2.053-0.917,3.187C201.41,396.615,202.804,397.051,203.933,396.461  L203.933,396.461z M154.464,422.848c1.133-0.597,1.563-1.996,0.972-3.125c-0.591-1.129-1.996-1.563-3.125-0.972  c-1.133,0.597-1.563,1.996-0.972,3.125C151.937,423.01,153.336,423.44,154.464,422.848L154.464,422.848z M22.645,245.371  c0.34-1.254-0.355-2.553-1.591-2.958c-1.248-0.335-2.534,0.41-2.863,1.663c-0.323,1.206,0.363,2.448,1.548,2.827  C20.96,247.247,22.24,246.577,22.645,245.371L22.645,245.371z M6.364,299c0.344-1.221-0.325-2.5-1.531-2.903  c-1.225-0.379-2.525,0.306-2.903,1.531c-0.379,1.225,0.306,2.525,1.531,2.903C4.682,300.886,5.97,300.203,6.364,299L6.364,299z   M114.649,325.751c0.757-1.02,0.607-2.453-0.334-3.302c-1.012-0.771-2.451-0.595-3.247,0.396c-0.819,0.954-0.714,2.393,0.248,3.216  c0.012,0.009,0.026,0.02,0.039,0.029C112.35,326.91,113.821,326.758,114.649,325.751  C114.645,325.757,114.649,325.751,114.649,325.751L114.649,325.751z M79.041,369.113c0.818-1.006,0.668-2.48-0.328-3.298  c0,0,0,0-0.006-0.005c-0.968-0.789-2.4-0.639-3.181,0.334l0,0c-0.808,0.981-0.674,2.433,0.303,3.238  C76.785,370.197,78.222,370.067,79.041,369.113L79.041,369.113z M149.498,342.006c0.816-0.966,0.692-2.419-0.28-3.24  c-0.972-0.824-2.419-0.692-3.242,0.279c-0.792,0.946-0.702,2.352,0.213,3.181C147.173,343.076,148.646,342.977,149.498,342.006  L149.498,342.006z M112.303,383.663c0.845-0.975,0.746-2.449-0.225-3.3c-0.952-0.808-2.38-0.732-3.245,0.165  c-0.836,0.992-0.761,2.457,0.164,3.356C109.986,384.707,111.436,384.6,112.303,383.663L112.303,383.663z M37.641,308.479  c0.395-1.222-0.261-2.543-1.476-2.963c-1.195-0.406-2.496,0.226-2.902,1.42c-0.457,1.157,0.107,2.467,1.263,2.925  c0.031,0.014,0.06,0.026,0.097,0.032c1.196,0.458,2.537-0.145,2.987-1.347C37.626,308.529,37.634,308.505,37.641,308.479  L37.641,308.479z"/>
<g style="opacity:0.26;">
	<polygon style="fill:none;" points="211.716,598.511 211.716,464.99 195.502,448.775 195.502,598.511  "/>
	<polygon style="fill:none;" points="241.774,598.511 241.774,495.047 225.559,478.833 225.559,598.511  "/>
	<polygon style="fill:none;" points="301.889,598.511 301.889,555.163 285.675,538.948 285.675,598.511  "/>
	<polygon style="fill:none;" points="181.658,434.932 168.057,421.331 168.057,598.511 181.658,598.511  "/>
	<polygon style="fill:none;" points="331.947,598.511 331.947,585.22 315.733,569.007 315.733,598.511  "/>
	<polygon style="fill:none;" points="271.831,598.511 271.831,525.105 255.617,508.891 255.617,598.511  "/>
	<polygon style="fill:#FFFFFF;" points="345.238,598.511 331.947,585.22 331.947,598.511  "/>
	<polygon style="fill:#FFFFFF;" points="315.733,598.511 315.733,569.007 301.889,555.163 301.889,598.511  "/>
	<polygon style="fill:#FFFFFF;" points="285.675,598.511 285.675,538.948 271.831,525.105 271.831,598.511  "/>
	<polygon style="fill:#FFFFFF;" points="255.617,598.511 255.617,508.891 241.774,495.047 241.774,598.511  "/>
	<polygon style="fill:#FFFFFF;" points="225.559,598.511 225.559,478.833 211.716,464.99 211.716,598.511  "/>
	<polygon style="fill:#FFFFFF;" points="195.502,598.511 195.502,448.775 181.658,434.932 181.658,598.511  "/>
</g>
<g style="opacity:0.26;">
	<polygon style="fill:none;" points="321.211,526.942 381.241,586.972 387.742,580.472 334.212,526.942  "/>
	<polygon style="fill:none;" points="393.513,526.942 417.392,550.821 423.893,544.32 406.514,526.942  "/>
	<polygon style="fill:none;" points="369.413,526.942 405.342,562.871 411.843,556.371 382.413,526.942  "/>
	<polygon style="fill:none;" points="299.206,526.942 370.239,597.975 375.692,592.523 310.111,526.942  "/>
	<polygon style="fill:none;" points="417.614,526.942 429.443,538.771 435.943,532.27 430.615,526.942  "/>
	<polygon style="fill:none;" points="345.312,526.942 393.291,574.922 399.792,568.422 358.313,526.942  "/>
	<polygon style="fill:#FFFFFF;" points="435.943,532.27 441.272,526.942 430.615,526.942  "/>
	<polygon style="fill:#FFFFFF;" points="406.514,526.942 423.893,544.32 429.443,538.771 417.614,526.942  "/>
	<polygon style="fill:#FFFFFF;" points="382.413,526.942 411.843,556.371 417.392,550.821 393.513,526.942  "/>
	<polygon style="fill:#FFFFFF;" points="358.313,526.942 399.792,568.422 405.342,562.871 369.413,526.942  "/>
	<polygon style="fill:#FFFFFF;" points="334.212,526.942 387.742,580.472 393.291,574.922 345.312,526.942  "/>
	<polygon style="fill:#FFFFFF;" points="310.111,526.942 375.692,592.523 381.241,586.972 321.211,526.942  "/>
</g>
<g>
	<path style="opacity:0.45;fill:#D9E021;enable-background:new    ;" d="M66.916,375.481l-14.734-10.134   C55.113,369.315,60.254,372.801,66.916,375.481z"/>
	<path style="opacity:0.45;fill:#D9E021;enable-background:new    ;" d="M49.648,359.818l27.36,18.82   c1.293,0.306,2.618,0.586,3.972,0.84l-31.54-21.696C49.447,358.468,49.518,359.147,49.648,359.818z"/>
	<path style="opacity:0.45;fill:#D9E021;enable-background:new    ;" d="M49.942,354.341l38.052,26.175   c1.052,0.117,2.115,0.217,3.191,0.302l-40.68-27.983C50.283,353.332,50.096,353.834,49.942,354.341z"/>
	<path style="opacity:0.45;fill:#D9E021;enable-background:new    ;" d="M52.08,350.133l45.048,30.987   c0.817,0.018,1.638,0.028,2.465,0.028c0.109,0,0.216-0.002,0.325-0.002l-46.866-32.238   C52.705,349.312,52.379,349.719,52.08,350.133z"/>
	<path style="opacity:0.45;fill:#D9E021;enable-background:new    ;" d="M55.289,346.661l49.922,34.34   c0.846-0.044,1.685-0.098,2.517-0.162l-51.191-35.213C56.102,345.966,55.686,346.311,55.289,346.661z"/>
	<path style="opacity:0.45;fill:#D9E021;enable-background:new    ;" d="M59.261,343.715l53.27,36.643   c0.773-0.096,1.538-0.201,2.296-0.314l-54.098-37.213C60.226,343.121,59.736,343.415,59.261,343.715z"/>
	<path style="opacity:0.45;fill:#D9E021;enable-background:new    ;" d="M63.859,341.199l55.363,38.082   c0.709-0.142,1.411-0.29,2.104-0.446l-55.808-38.389C64.953,340.692,64.4,340.943,63.859,341.199z"/>
	<path style="opacity:0.45;fill:#D9E021;enable-background:new    ;" d="M69.011,339.064l56.339,38.754   c0.652-0.183,1.293-0.373,1.925-0.569l-56.43-38.817C70.223,338.638,69.612,338.848,69.011,339.064z"/>
	<path style="opacity:0.45;fill:#D9E021;enable-background:new    ;" d="M74.687,337.29l56.265,38.703   c0.595-0.223,1.179-0.453,1.751-0.688l-56.006-38.526C76.017,336.942,75.347,337.113,74.687,337.29z"/>
	<path style="opacity:0.45;fill:#D9E021;enable-background:new    ;" d="M80.895,335.882l55.131,37.923   c0.536-0.265,1.06-0.536,1.57-0.813l-54.508-37.495C82.349,335.618,81.618,335.746,80.895,335.882z"/>
	<path style="opacity:0.45;fill:#D9E021;enable-background:new    ;" d="M87.671,334.864l52.869,36.368   c0.472-0.312,0.928-0.629,1.368-0.952l-51.841-35.66C89.262,334.692,88.463,334.774,87.671,334.864z"/>
	<path style="opacity:0.45;fill:#D9E021;enable-background:new    ;" d="M95.092,334.29l49.321,33.926   c0.395-0.367,0.77-0.741,1.125-1.119l-47.807-32.885C96.845,334.228,95.966,334.254,95.092,334.29z"/>
	<path style="opacity:0.45;fill:#D9E021;enable-background:new    ;" d="M103.302,334.259l44.189,30.397   c0.294-0.443,0.558-0.892,0.796-1.345l-42.026-28.908C105.284,334.341,104.298,334.293,103.302,334.259z"/>
	<path style="opacity:0.45;fill:#D9E021;enable-background:new    ;" d="M112.632,334.998l36.798,25.313   c0.134-0.562,0.226-1.131,0.274-1.705L116.114,335.5C114.972,335.314,113.81,335.146,112.632,334.998z"/>
	<path style="opacity:0.45;fill:#D9E021;enable-background:new    ;" d="M128.908,338.622c-1.555-0.526-3.178-1.01-4.861-1.45   l25.255,17.373c-0.255-0.896-0.616-1.775-1.081-2.637L128.908,338.622z"/>
</g>
<g>
	<path style="opacity:0.45;fill:#FFFFFF;enable-background:new    ;" d="M512.03,498.682l-22.935-15.776   C493.659,489.082,501.66,494.508,512.03,498.682z"/>
	<path style="opacity:0.45;fill:#FFFFFF;enable-background:new    ;" d="M485.151,474.299l42.591,29.297   c2.013,0.476,4.076,0.913,6.184,1.307l-49.098-33.773C484.839,472.197,484.949,473.254,485.151,474.299z"/>
	<path style="opacity:0.45;fill:#FFFFFF;enable-background:new    ;" d="M485.609,465.774l59.234,40.746   c1.636,0.181,3.293,0.338,4.967,0.47l-63.325-43.56C486.139,464.202,485.848,464.984,485.609,465.774z"/>
	<path style="opacity:0.45;fill:#FFFFFF;enable-background:new    ;" d="M488.936,459.223l70.124,48.236   c1.272,0.029,2.55,0.044,3.837,0.044c0.169,0,0.338-0.002,0.507-0.003l-72.955-50.184   C489.91,457.943,489.402,458.579,488.936,459.223z"/>
	<path style="opacity:0.45;fill:#FFFFFF;enable-background:new    ;" d="M493.931,453.818l77.712,53.456   c1.316-0.069,2.622-0.152,3.918-0.251l-79.687-54.815C495.197,452.736,494.55,453.273,493.931,453.818z"/>
	<path style="opacity:0.45;fill:#FFFFFF;enable-background:new    ;" d="M500.115,449.232l82.923,57.041   c1.203-0.15,2.394-0.312,3.574-0.488L502.4,447.858C501.616,448.307,500.854,448.765,500.115,449.232z"/>
	<path style="opacity:0.45;fill:#FFFFFF;enable-background:new    ;" d="M507.273,445.316l86.181,59.281   c1.105-0.22,2.197-0.451,3.274-0.694l-86.874-59.758C508.975,444.526,508.114,444.917,507.273,445.316z"/>
	<path style="opacity:0.45;fill:#FFFFFF;enable-background:new    ;" d="M515.292,441.993l87.701,60.327   c1.014-0.285,2.012-0.58,2.996-0.885l-87.842-60.424C517.179,441.327,516.227,441.656,515.292,441.993z"/>
	<path style="opacity:0.45;fill:#FFFFFF;enable-background:new    ;" d="M524.127,439.23l87.585,60.248   c0.926-0.347,1.835-0.705,2.726-1.071l-87.183-59.971C526.198,438.689,525.156,438.955,524.127,439.23z"/>
	<path style="opacity:0.45;fill:#FFFFFF;enable-background:new    ;" d="M533.792,437.039l85.82,59.033   c0.835-0.413,1.651-0.834,2.444-1.266l-84.851-58.366C536.055,436.627,534.918,436.827,533.792,437.039z"/>
	<path style="opacity:0.45;fill:#FFFFFF;enable-background:new    ;" d="M544.34,435.454l82.299,56.611   c0.735-0.485,1.445-0.98,2.129-1.482l-80.697-55.51C546.815,435.187,545.572,435.313,544.34,435.454z"/>
	<path style="opacity:0.45;fill:#FFFFFF;enable-background:new    ;" d="M555.891,434.56l76.775,52.812   c0.616-0.572,1.199-1.153,1.751-1.742l-74.418-51.191C558.622,434.463,557.252,434.504,555.891,434.56z"/>
	<path style="opacity:0.45;fill:#FFFFFF;enable-background:new    ;" d="M568.672,434.512l68.787,47.317   c0.458-0.689,0.868-1.388,1.24-2.094l-65.42-45.001C571.757,434.64,570.221,434.565,568.672,434.512z"/>
	<path style="opacity:0.45;fill:#FFFFFF;enable-background:new    ;" d="M583.196,435.663l57.283,39.403   c0.21-0.876,0.352-1.76,0.427-2.653l-52.289-35.968C586.837,436.154,585.03,435.893,583.196,435.663z"/>
	<path style="opacity:0.45;fill:#FFFFFF;enable-background:new    ;" d="M608.533,441.305c-2.422-0.818-4.948-1.572-7.566-2.258   l39.314,27.043c-0.396-1.394-0.96-2.764-1.682-4.104L608.533,441.305z"/>
</g>
<g>
	<path style="fill:none;" d="M112.829,444.819l27.624,19.002c0.764-0.114,1.513-0.244,2.244-0.389l-28.27-19.446   C113.867,444.251,113.333,444.529,112.829,444.819z"/>
	<path style="fill:none;" d="M107.063,452.397c0,0.019,0.002,0.037,0.002,0.056l16.105,11.079c1.154,0.216,2.351,0.394,3.581,0.53   l-19.431-13.366C107.152,451.252,107.063,451.819,107.063,452.397z"/>
	<path style="fill:none;" d="M115.273,443.601l28.498,19.603c0.704-0.159,1.389-0.332,2.055-0.52l-28.769-19.79   C116.44,443.118,115.845,443.354,115.273,443.601z"/>
	<path style="fill:none;" d="M108.464,456.316l7.523,5.175c1.565,0.629,3.294,1.172,5.154,1.612l-13.971-9.61   C107.36,454.473,107.801,455.418,108.464,456.316z"/>
	<path style="fill:none;" d="M107.608,449.927l20.773,14.289c0.994,0.078,2.006,0.131,3.034,0.154l-23.003-15.824   C108.087,448.995,107.819,449.456,107.608,449.927z"/>
	<path style="fill:none;" d="M110.688,446.246l26.14,17.981c0.832-0.063,1.65-0.146,2.453-0.246l-27.202-18.711   C111.582,445.584,111.118,445.909,110.688,446.246z"/>
	<path style="fill:none;" d="M108.908,447.922l23.932,16.462c0.913-0.003,1.814-0.028,2.702-0.074l-25.492-17.536   C109.629,447.146,109.247,447.528,108.908,447.922z"/>
	<path style="fill:none;" d="M120.981,441.728l28.599,19.672c0.591-0.243,1.157-0.498,1.697-0.766l-28.152-19.365   C122.394,441.407,121.679,441.561,120.981,441.728z"/>
	<path style="fill:none;" d="M124.246,441.074l27.834,19.146c0.53-0.288,1.033-0.588,1.503-0.899l-26.997-18.57   C125.791,440.841,125.01,440.949,124.246,441.074z"/>
	<path style="fill:none;" d="M141.11,441.075l17.152,11.799c0.013-0.159,0.022-0.317,0.022-0.477c0-0.542-0.078-1.074-0.227-1.597   l-12.897-8.871C143.875,441.592,142.521,441.305,141.11,441.075z"/>
	<path style="fill:none;" d="M127.81,440.626l26.472,18.209c0.463-0.34,0.89-0.691,1.279-1.053l-25.185-17.324   C129.507,440.493,128.651,440.549,127.81,440.626z"/>
	<path style="fill:none;" d="M132.673,440.408c-0.319,0-0.635,0.004-0.95,0.009l24.412,16.792c0.379-0.405,0.714-0.821,0.997-1.247   l-22.565-15.522C133.943,440.42,133.311,440.408,132.673,440.408z"/>
	<path style="fill:none;" d="M147.644,442.669l9.862,6.784C156.012,446.682,152.455,444.295,147.644,442.669z"/>
	<path style="fill:none;" d="M117.994,442.573l28.815,19.822c0.647-0.201,1.273-0.415,1.878-0.642l-28.731-19.763   C119.282,442.169,118.628,442.365,117.994,442.573z"/>
	<path style="fill:none;" d="M136.08,440.514l21.46,14.762c0.263-0.499,0.459-1.01,0.584-1.532l-18.791-12.926   C138.273,440.686,137.188,440.583,136.08,440.514z"/>
	<path style="opacity:0.45;fill:#A1C3FC;enable-background:new    ;" d="M115.987,461.491l-7.523-5.175   C109.961,458.342,112.586,460.122,115.987,461.491z"/>
	<path style="opacity:0.45;fill:#A1C3FC;enable-background:new    ;" d="M107.17,453.493l13.971,9.61   c0.661,0.156,1.337,0.299,2.028,0.429l-16.105-11.079C107.067,452.803,107.104,453.15,107.17,453.493z"/>
	<path style="opacity:0.45;fill:#A1C3FC;enable-background:new    ;" d="M107.32,450.696l19.431,13.366   c0.536,0.059,1.081,0.111,1.629,0.154l-20.773-14.289C107.494,450.18,107.399,450.437,107.32,450.696z"/>
	<path style="opacity:0.45;fill:#A1C3FC;enable-background:new    ;" d="M108.412,448.547l23.003,15.965   c0.417,0.009,0.837,0.156,1.259,0.156c0.056,0,0.11,0,0.166,0l-23.932-16.605C108.731,448.27,108.565,448.335,108.412,448.547z"/>
	<path style="opacity:0.45;fill:#A1C3FC;enable-background:new    ;" d="M110.05,446.774l25.492,17.536   c0.432-0.023,0.86-0.05,1.285-0.082l-26.14-17.981C110.466,446.419,110.253,446.595,110.05,446.774z"/>
	<path style="opacity:0.45;fill:#A1C3FC;enable-background:new    ;" d="M112.079,445.27l27.202,18.712   c0.395-0.05,0.786-0.103,1.172-0.16l-27.624-19.002C112.571,444.967,112.321,445.117,112.079,445.27z"/>
	<path style="opacity:0.45;fill:#A1C3FC;enable-background:new    ;" d="M114.427,443.985l28.27,19.446   c0.362-0.072,0.721-0.148,1.074-0.228L115.273,443.6C114.985,443.726,114.703,443.854,114.427,443.985z"/>
	<path style="opacity:0.45;fill:#A1C3FC;enable-background:new    ;" d="M117.058,442.895l28.769,19.79   c0.333-0.094,0.66-0.19,0.983-0.29l-28.815-19.822C117.677,442.677,117.364,442.784,117.058,442.895z"/>
	<path style="opacity:0.45;fill:#A1C3FC;enable-background:new    ;" d="M119.956,441.989l28.731,19.763   c0.304-0.114,0.602-0.231,0.895-0.351l-28.599-19.672C120.636,441.811,120.293,441.898,119.956,441.989z"/>
	<path style="opacity:0.45;fill:#A1C3FC;enable-background:new    ;" d="M123.126,441.27l28.152,19.365   c0.274-0.136,0.541-0.274,0.802-0.415l-27.834-19.146C123.869,441.135,123.495,441.2,123.126,441.27z"/>
	<path style="opacity:0.45;fill:#A1C3FC;enable-background:new    ;" d="M126.586,440.75l26.997,18.57   c0.241-0.159,0.474-0.322,0.699-0.486l-26.472-18.209C127.398,440.662,126.991,440.704,126.586,440.75z"/>
	<path style="opacity:0.45;fill:#A1C3FC;enable-background:new    ;" d="M130.375,440.457l25.185,17.324   c0.202-0.187,0.393-0.378,0.575-0.572l-24.412-16.792C131.271,440.425,130.822,440.438,130.375,440.457z"/>
	<path style="opacity:0.45;fill:#A1C3FC;enable-background:new    ;" d="M134.568,440.441l22.565,15.522   c0.15-0.226,0.285-0.455,0.407-0.687l-21.46-14.762C135.58,440.483,135.076,440.459,134.568,440.441z"/>
	<path style="opacity:0.45;fill:#A1C3FC;enable-background:new    ;" d="M139.333,440.818l18.791,12.926   c0.069-0.287,0.116-0.578,0.14-0.87l-17.152-11.799C140.527,440.98,139.934,440.894,139.333,440.818z"/>
	<path style="opacity:0.45;fill:#A1C3FC;enable-background:new    ;" d="M147.644,442.669c-0.794-0.268-1.623-0.516-2.482-0.741   l12.897,8.871c-0.13-0.457-0.315-0.907-0.552-1.346L147.644,442.669z"/>
</g>
<g>
	<g>
		<path style="fill:#FFFFFF;" d="M635.42,536.669c-4.276,0-7.755-3.478-7.755-7.755c0-4.277,3.479-7.756,7.755-7.756    c4.277,0,7.756,3.479,7.756,7.756C643.174,533.191,639.696,536.669,635.42,536.669z M635.42,522.227c-3.687,0-6.687,3-6.687,6.688    c0,3.687,3,6.687,6.687,6.687c3.688,0,6.688-3,6.688-6.687S639.108,522.227,635.42,522.227z"/>
	</g>
	<g>
		<path style="fill:#FFFFFF;" d="M635.42,541.21c-6.779,0-12.295-5.516-12.295-12.295c0-6.78,5.516-12.296,12.295-12.296    c6.78,0,12.296,5.516,12.296,12.296C647.715,535.694,642.199,541.21,635.42,541.21z M635.42,517.686    c-6.191,0-11.228,5.038-11.228,11.229c0,6.191,5.037,11.228,11.228,11.228c6.191,0,11.229-5.037,11.229-11.228    C646.648,522.723,641.611,517.686,635.42,517.686z"/>
	</g>
	<g>
		<path style="fill:#FFFFFF;" d="M635.42,546.318c-9.596,0-17.403-7.807-17.403-17.403c0-9.597,7.807-17.405,17.403-17.405    c9.596,0,17.405,7.807,17.405,17.405C652.824,538.511,645.016,546.318,635.42,546.318z M635.42,512.577    c-9.008,0-16.336,7.329-16.336,16.337s7.328,16.336,16.336,16.336s16.337-7.328,16.337-16.336S644.427,512.577,635.42,512.577z"/>
	</g>
	<g>
		<path style="fill:#FFFFFF;" d="M635.42,551.994c-12.726,0-23.08-10.353-23.08-23.078c0-12.726,10.353-23.08,23.08-23.08    s23.08,10.353,23.08,23.08C658.499,541.641,648.146,551.994,635.42,551.994z M635.42,506.902    c-12.138,0-22.012,9.875-22.012,22.012c0,12.138,9.875,22.012,22.012,22.012c12.137,0,22.012-9.874,22.012-22.012    C657.432,516.778,647.557,506.902,635.42,506.902z"/>
	</g>
	<g>
		<path style="fill:#FFFFFF;" d="M635.42,557.102c-15.542,0-28.188-12.645-28.188-28.188c0-15.543,12.645-28.188,28.188-28.188    c15.543,0,28.188,12.645,28.188,28.188C663.607,544.457,650.963,557.102,635.42,557.102z M635.42,501.794    c-14.954,0-27.12,12.167-27.12,27.121s12.166,27.12,27.12,27.12s27.121-12.166,27.121-27.12S650.374,501.794,635.42,501.794z"/>
	</g>
</g>
<g style="opacity:0.31;">
	<polygon style="fill:none;" points="764.666,440.493 799.835,440.493 799.835,430.919 774.24,430.919  "/>
	<polygon style="fill:none;" points="729.172,475.987 799.835,475.987 799.835,466.414 738.745,466.414  "/>
	<polygon style="fill:none;" points="782.414,422.745 799.835,422.745 799.835,413.172 791.988,413.172  "/>
	<polygon style="fill:none;" points="695.22,509.939 799.835,509.939 799.835,501.909 703.251,501.909  "/>
	<polygon style="fill:none;" points="711.425,493.735 799.835,493.735 799.835,484.161 720.998,484.161  "/>
	<polygon style="fill:none;" points="746.919,458.24 799.835,458.24 799.835,448.667 756.493,448.667  "/>
	<polygon style="fill:#428DFC;" points="799.835,413.172 799.835,405.324 791.988,413.172  "/>
	<polygon style="fill:#428DFC;" points="774.24,430.919 799.835,430.919 799.835,422.745 782.414,422.745  "/>
	<polygon style="fill:#428DFC;" points="756.493,448.667 799.835,448.667 799.835,440.493 764.666,440.493  "/>
	<polygon style="fill:#428DFC;" points="738.745,466.414 799.835,466.414 799.835,458.24 746.919,458.24  "/>
	<polygon style="fill:#428DFC;" points="720.998,484.161 799.835,484.161 799.835,475.987 729.172,475.987  "/>
	<polygon style="fill:#428DFC;" points="703.251,501.909 799.835,501.909 799.835,493.735 711.425,493.735  "/>
</g>
<path id="texture-2_15_-i0" style="fill:#FFFFFF;" d="M117.632,574.156c-0.168-0.093-0.379-0.029-0.472,0.138  c-0.093,0.168-0.029,0.38,0.139,0.472c0.168,0.093,0.379,0.029,0.472-0.138l0,0C117.864,574.46,117.803,574.248,117.632,574.156  L117.632,574.156z M82.134,570.843c-0.054-0.189-0.252-0.298-0.44-0.243l0,0c-0.174,0.044-0.279,0.222-0.235,0.395  c0.002,0.014,0.008,0.03,0.015,0.043c0.049,0.183,0.233,0.292,0.417,0.245C82.076,571.227,82.188,571.032,82.134,570.843  L82.134,570.843L82.134,570.843z M100.005,573.678c0.005-0.195-0.136-0.363-0.328-0.393c-0.197-0.019-0.375,0.128-0.393,0.328  c-0.019,0.197,0.128,0.375,0.328,0.393C99.806,574.008,99.975,573.87,100.005,573.678z M119.649,531.614  c0.053-0.364-0.194-0.705-0.558-0.766c-0.348-0.071-0.688,0.152-0.76,0.498c-0.002,0.013-0.005,0.023-0.006,0.035  c-0.053,0.364,0.194,0.705,0.558,0.766C119.241,532.212,119.585,531.973,119.649,531.614L119.649,531.614z M116.993,547.519  c0.053-0.367-0.201-0.706-0.568-0.757c-0.359-0.052-0.696,0.192-0.755,0.55c-0.065,0.359,0.174,0.701,0.533,0.766l0,0  C116.574,548.124,116.917,547.881,116.993,547.519z M114.318,563.447c0.062-0.359-0.175-0.698-0.534-0.76  c-0.007-0.001-0.015-0.002-0.022-0.003c-0.348-0.071-0.688,0.152-0.76,0.498c-0.002,0.013-0.005,0.023-0.006,0.035  c-0.048,0.368,0.195,0.712,0.559,0.79C113.917,564.058,114.257,563.811,114.318,563.447z M148.672,550.252  c-0.316-0.184-0.721-0.078-0.905,0.241c-0.184,0.315-0.077,0.721,0.241,0.905c0.31,0.18,0.707,0.08,0.895-0.225  C149.088,550.855,148.985,550.446,148.672,550.252L148.672,550.252z M140.119,563.942c-0.316-0.184-0.721-0.078-0.905,0.241  c-0.184,0.315-0.077,0.721,0.241,0.905c0.31,0.18,0.707,0.08,0.895-0.224C140.535,564.547,140.432,564.136,140.119,563.942  L140.119,563.942z M88.149,539.959c-0.091-0.357-0.45-0.577-0.81-0.491c-0.352,0.078-0.571,0.427-0.494,0.779  c0.001,0.002,0.001,0.005,0.002,0.007c0.058,0.349,0.387,0.584,0.736,0.527c0.016-0.003,0.033-0.006,0.052-0.01  C87.989,540.673,88.214,540.323,88.149,539.959z M91.772,555.697c-0.095-0.357-0.447-0.58-0.809-0.515  c-0.357,0.091-0.576,0.452-0.491,0.81c0.083,0.357,0.44,0.579,0.796,0.495c0.005-0.001,0.01-0.002,0.012-0.002  c0.352-0.078,0.571-0.427,0.495-0.776C91.773,555.701,91.773,555.699,91.772,555.697z M95.394,571.409  c-0.071-0.346-0.407-0.571-0.753-0.499c-0.01,0.002-0.021,0.004-0.03,0.008c-0.359,0.069-0.592,0.418-0.523,0.777  c0.002,0.012,0.004,0.021,0.006,0.033c0.086,0.36,0.448,0.582,0.805,0.497c0.36-0.086,0.582-0.448,0.497-0.805  C95.395,571.413,95.394,571.411,95.394,571.409z M161.868,558.992c-0.26-0.197-0.63-0.15-0.833,0.106  c-0.2,0.258-0.152,0.631,0.106,0.833c0.258,0.202,0.631,0.152,0.833-0.106l0,0C162.171,559.564,162.124,559.195,161.868,558.992z   M103.528,543.734c-0.056-0.33-0.359-0.558-0.691-0.52c-0.315,0.04-0.539,0.326-0.5,0.642c0.002,0.01,0.003,0.016,0.005,0.026  c0.036,0.326,0.33,0.56,0.655,0.522c0.005-0.001,0.007-0.002,0.012-0.002C103.326,544.349,103.555,544.059,103.528,543.734  L103.528,543.734z M105.391,557.992c-0.047-0.322-0.346-0.543-0.666-0.498c-0.315,0.04-0.539,0.326-0.5,0.642  c0.002,0.01,0.003,0.016,0.005,0.026c0.036,0.326,0.33,0.56,0.655,0.524c0.005-0.001,0.007-0.002,0.012-0.002  C105.22,558.623,105.439,558.318,105.391,557.992L105.391,557.992z M107.282,572.296c-0.036-0.326-0.33-0.56-0.655-0.524  c-0.005,0.001-0.007,0.002-0.012,0.002c-0.309,0.028-0.534,0.303-0.506,0.611c0.002,0.019,0.005,0.038,0.008,0.056  c0.036,0.326,0.33,0.56,0.655,0.524c0.005-0.001,0.007-0.002,0.012-0.002C107.099,572.908,107.32,572.615,107.282,572.296  L107.282,572.296z M133.649,553.224c0.074-0.319-0.119-0.641-0.437-0.722c-0.315-0.085-0.637,0.099-0.722,0.413  c-0.079,0.319,0.101,0.647,0.413,0.747C133.228,553.743,133.558,553.548,133.649,553.224L133.649,553.224z M129.907,567.143  c0.092-0.302-0.076-0.622-0.378-0.714c-0.011-0.003-0.023-0.005-0.034-0.011c-0.315-0.085-0.637,0.099-0.722,0.413  c-0.079,0.319,0.101,0.647,0.413,0.747C129.504,567.654,129.824,567.461,129.907,567.143L129.907,567.143z M78.863,559.534  c-0.15-0.274-0.491-0.373-0.765-0.225c-0.011,0.007-0.022,0.011-0.03,0.018c-0.287,0.155-0.395,0.515-0.239,0.804  c0.004,0.006,0.007,0.013,0.01,0.018c0.175,0.276,0.536,0.367,0.822,0.205c0.281-0.159,0.378-0.517,0.219-0.798  C78.874,559.549,78.867,559.543,78.863,559.534L78.863,559.534z M86.075,572.015c-0.167-0.285-0.531-0.387-0.822-0.229  c-0.283,0.174-0.375,0.546-0.2,0.829c0.165,0.271,0.513,0.367,0.793,0.219c0.286-0.15,0.397-0.506,0.246-0.792  C86.089,572.035,86.082,572.024,86.075,572.015L86.075,572.015z M163.62,543.796c0.079-0.372-0.144-0.741-0.513-0.84  c-0.367-0.094-0.742,0.123-0.839,0.488c-0.084,0.373,0.143,0.745,0.513,0.84C163.149,544.378,163.523,544.161,163.62,543.796  L163.62,543.796z M159.469,559.906c0.097-0.367-0.123-0.742-0.488-0.839c-0.365-0.097-0.742,0.123-0.839,0.488  c-0.097,0.367,0.123,0.742,0.488,0.839C158.996,560.491,159.371,560.271,159.469,559.906L159.469,559.906z M94.222,553.132  c-0.206-0.326-0.629-0.434-0.966-0.245c-0.324,0.206-0.418,0.636-0.21,0.959c0.199,0.312,0.608,0.411,0.928,0.229  C94.294,553.877,94.405,553.462,94.222,553.132L94.222,553.132z M102.683,567.448c-0.198-0.32-0.612-0.431-0.942-0.248  c-0.328,0.192-0.44,0.613-0.248,0.942c0.192,0.328,0.613,0.44,0.942,0.248C102.758,568.194,102.867,567.776,102.683,567.448  L102.683,567.448z M130.251,549.136c-0.071-0.37-0.415-0.625-0.789-0.589c-0.372,0.066-0.622,0.417-0.565,0.789  c0.044,0.37,0.38,0.636,0.753,0.591c0.005-0.001,0.01-0.002,0.014-0.002C130.043,549.872,130.305,549.52,130.251,549.136  C130.252,549.139,130.251,549.136,130.251,549.136L130.251,549.136z M132.591,565.62c-0.056-0.38-0.408-0.643-0.787-0.59  c0,0,0,0-0.002,0.001c-0.367,0.053-0.621,0.396-0.565,0.763l0,0c0.053,0.373,0.397,0.635,0.769,0.583  C132.376,566.331,132.635,565.99,132.591,565.62L132.591,565.62z M140.796,544.777c-0.047-0.372-0.39-0.636-0.764-0.589  c-0.375,0.047-0.636,0.39-0.589,0.765c0.048,0.363,0.373,0.625,0.738,0.591C140.563,545.499,140.837,545.157,140.796,544.777  L140.796,544.777z M142.444,561.265c-0.043-0.38-0.386-0.655-0.767-0.613c-0.368,0.046-0.637,0.373-0.615,0.743  c0.05,0.382,0.385,0.659,0.767,0.637C142.207,561.981,142.475,561.642,142.444,561.265L142.444,561.265z M111.029,562.511  c-0.188-0.331-0.608-0.453-0.944-0.272c-0.328,0.18-0.451,0.591-0.271,0.92c0.162,0.332,0.561,0.472,0.893,0.31  c0.009-0.004,0.018-0.008,0.027-0.014c0.34-0.17,0.477-0.584,0.305-0.924C111.037,562.524,111.034,562.518,111.029,562.511  L111.029,562.511z"/>
<path id="texture-2_16_-i0" style="fill:#FFFFFF;" d="M749.891,593.519c0.168-0.093,0.379-0.029,0.472,0.138  c0.093,0.168,0.029,0.379-0.139,0.472c-0.168,0.093-0.379,0.029-0.472-0.138l0,0C749.661,593.823,749.721,593.612,749.891,593.519  L749.891,593.519z M785.39,590.206c0.054-0.189,0.252-0.298,0.44-0.243l0,0c0.174,0.044,0.279,0.222,0.235,0.396  c-0.002,0.014-0.008,0.03-0.015,0.043c-0.049,0.183-0.234,0.292-0.417,0.245C785.447,590.59,785.336,590.395,785.39,590.206  L785.39,590.206L785.39,590.206z M767.519,593.041c-0.005-0.195,0.136-0.363,0.328-0.393c0.197-0.019,0.375,0.128,0.393,0.328  c0.019,0.197-0.128,0.375-0.328,0.393C767.717,593.371,767.55,593.234,767.519,593.041z M747.875,550.977  c-0.053-0.364,0.194-0.705,0.558-0.766c0.348-0.071,0.688,0.152,0.76,0.498c0.002,0.013,0.005,0.023,0.006,0.035  c0.053,0.364-0.194,0.705-0.558,0.766C748.284,551.575,747.939,551.336,747.875,550.977L747.875,550.977z M750.531,566.882  c-0.053-0.367,0.201-0.706,0.568-0.757c0.359-0.053,0.696,0.192,0.755,0.55c0.065,0.359-0.174,0.701-0.533,0.766l0,0  C750.95,567.487,750.607,567.244,750.531,566.882z M753.206,582.81c-0.063-0.359,0.175-0.698,0.534-0.76  c0.007-0.001,0.015-0.002,0.022-0.003c0.348-0.071,0.688,0.152,0.76,0.498c0.002,0.013,0.005,0.023,0.006,0.035  c0.048,0.368-0.195,0.712-0.559,0.79C753.608,583.421,753.267,583.174,753.206,582.81z M718.852,569.615  c0.316-0.184,0.721-0.078,0.905,0.241c0.184,0.315,0.077,0.721-0.241,0.905c-0.31,0.18-0.707,0.08-0.895-0.225  C718.436,570.218,718.539,569.809,718.852,569.615L718.852,569.615z M727.405,583.305c0.316-0.184,0.721-0.078,0.905,0.241  c0.184,0.315,0.077,0.721-0.241,0.905c-0.31,0.18-0.707,0.08-0.895-0.224C726.99,583.91,727.093,583.499,727.405,583.305  L727.405,583.305z M779.376,559.322c0.091-0.357,0.45-0.578,0.81-0.491c0.352,0.078,0.572,0.427,0.494,0.779  c0,0.002-0.001,0.005-0.001,0.007c-0.058,0.349-0.387,0.584-0.736,0.527c-0.016-0.003-0.033-0.006-0.052-0.01  C779.534,560.036,779.31,559.686,779.376,559.322z M775.752,575.06c0.095-0.357,0.447-0.58,0.809-0.515  c0.357,0.091,0.576,0.452,0.491,0.81c-0.083,0.357-0.44,0.579-0.796,0.495c-0.005-0.001-0.01-0.002-0.012-0.002  c-0.352-0.078-0.572-0.427-0.495-0.776C775.751,575.065,775.751,575.062,775.752,575.06z M772.131,590.772  c0.071-0.346,0.407-0.571,0.753-0.499c0.01,0.002,0.021,0.004,0.03,0.008c0.359,0.069,0.592,0.418,0.523,0.777  c-0.002,0.012-0.004,0.021-0.006,0.033c-0.086,0.36-0.448,0.582-0.805,0.497c-0.36-0.086-0.582-0.448-0.497-0.805  C772.129,590.776,772.13,590.774,772.131,590.772z M705.656,578.355c0.26-0.197,0.63-0.15,0.833,0.106  c0.2,0.258,0.152,0.631-0.106,0.833c-0.258,0.202-0.631,0.152-0.833-0.106l0,0C705.354,578.928,705.4,578.558,705.656,578.355z   M763.996,563.097c0.056-0.33,0.359-0.558,0.691-0.52c0.315,0.04,0.539,0.326,0.5,0.642c-0.002,0.01-0.003,0.016-0.005,0.026  c-0.036,0.326-0.33,0.56-0.655,0.522c-0.005-0.001-0.007-0.002-0.012-0.002C764.198,563.712,763.97,563.422,763.996,563.097  L763.996,563.097z M762.133,577.355c0.047-0.322,0.346-0.542,0.666-0.498c0.315,0.04,0.539,0.326,0.5,0.642  c-0.002,0.01-0.003,0.016-0.005,0.026c-0.036,0.326-0.33,0.56-0.655,0.524c-0.005-0.001-0.007-0.002-0.012-0.002  C762.305,577.987,762.085,577.681,762.133,577.355L762.133,577.355z M760.242,591.659c0.036-0.326,0.33-0.56,0.655-0.524  c0.005,0.001,0.007,0.002,0.012,0.002c0.308,0.028,0.534,0.303,0.506,0.611c-0.002,0.019-0.005,0.038-0.008,0.056  c-0.036,0.326-0.33,0.56-0.655,0.524c-0.005-0.001-0.007-0.002-0.012-0.002C760.424,592.271,760.204,591.978,760.242,591.659  L760.242,591.659z M733.875,572.587c-0.074-0.319,0.119-0.641,0.437-0.722c0.315-0.085,0.637,0.099,0.722,0.413  c0.079,0.318-0.101,0.647-0.413,0.747C734.296,573.106,733.966,572.912,733.875,572.587L733.875,572.587z M737.618,586.506  c-0.092-0.302,0.076-0.622,0.378-0.714c0.011-0.003,0.023-0.006,0.034-0.011c0.315-0.085,0.637,0.099,0.722,0.413  c0.079,0.318-0.101,0.647-0.413,0.747C738.021,587.017,737.7,586.824,737.618,586.506L737.618,586.506z M788.661,578.897  c0.15-0.274,0.491-0.373,0.765-0.225c0.011,0.007,0.022,0.011,0.03,0.018c0.287,0.155,0.395,0.515,0.239,0.804  c-0.004,0.006-0.007,0.013-0.01,0.018c-0.175,0.276-0.536,0.367-0.822,0.204c-0.281-0.159-0.378-0.517-0.219-0.798  C788.65,578.912,788.657,578.906,788.661,578.897L788.661,578.897z M781.449,591.378c0.167-0.285,0.531-0.387,0.821-0.229  c0.283,0.174,0.375,0.546,0.2,0.829c-0.165,0.271-0.512,0.367-0.793,0.219c-0.286-0.15-0.397-0.506-0.246-0.792  C781.435,591.398,781.442,591.387,781.449,591.378L781.449,591.378z M703.904,563.159c-0.079-0.372,0.144-0.741,0.513-0.84  c0.367-0.094,0.742,0.123,0.839,0.488c0.084,0.373-0.143,0.745-0.513,0.84C704.376,563.742,704.001,563.524,703.904,563.159  L703.904,563.159z M708.056,579.268c-0.097-0.367,0.123-0.742,0.488-0.839c0.366-0.097,0.742,0.123,0.839,0.488  c0.097,0.367-0.123,0.742-0.488,0.839C708.527,579.854,708.153,579.634,708.056,579.268L708.056,579.268z M773.302,572.495  c0.206-0.326,0.629-0.434,0.966-0.245c0.324,0.206,0.418,0.636,0.21,0.959c-0.199,0.312-0.608,0.411-0.929,0.229  C773.23,573.24,773.12,572.826,773.302,572.495L773.302,572.495z M764.841,586.811c0.198-0.32,0.612-0.431,0.942-0.248  c0.328,0.192,0.44,0.613,0.248,0.942c-0.192,0.328-0.613,0.44-0.942,0.248C764.766,587.557,764.657,587.139,764.841,586.811  L764.841,586.811z M737.273,568.499c0.071-0.37,0.415-0.625,0.789-0.589c0.372,0.066,0.622,0.417,0.565,0.789  c-0.044,0.37-0.38,0.636-0.753,0.591c-0.005-0.001-0.01-0.002-0.014-0.002C737.481,569.235,737.219,568.883,737.273,568.499  C737.273,568.502,737.273,568.499,737.273,568.499L737.273,568.499z M734.934,584.983c0.056-0.38,0.408-0.643,0.787-0.59  c0,0,0,0,0.002,0.001c0.367,0.053,0.621,0.396,0.565,0.763l0,0c-0.053,0.373-0.397,0.635-0.769,0.583  C735.148,585.694,734.889,585.353,734.934,584.983L734.934,584.983z M726.728,564.14c0.047-0.372,0.39-0.636,0.764-0.589  c0.375,0.047,0.636,0.39,0.589,0.765c-0.048,0.363-0.373,0.625-0.738,0.591C726.961,564.863,726.687,564.521,726.728,564.14  L726.728,564.14z M725.08,580.628c0.043-0.38,0.386-0.655,0.767-0.613c0.368,0.046,0.637,0.373,0.615,0.743  c-0.049,0.382-0.385,0.659-0.767,0.637C725.317,581.344,725.05,581.006,725.08,580.628L725.08,580.628z M756.495,581.874  c0.188-0.331,0.608-0.453,0.944-0.272c0.328,0.18,0.451,0.591,0.271,0.92c-0.162,0.331-0.561,0.472-0.893,0.31  c-0.009-0.004-0.018-0.008-0.027-0.014c-0.34-0.17-0.477-0.584-0.305-0.924C756.487,581.887,756.491,581.881,756.495,581.874  L756.495,581.874z"/>

        </g>
    </g>
</g>

<!-- ITEM 1 -->
<g>
    <defs>
        
        <clipPath id="clip-path-id-viewbox-item-1">
            <rect x="0.0" y="0.0" width="60.0" height="98.0"/>
        </clipPath>
    </defs>
    <g transform="translate(239.0 744.0) rotate(0.0 -87.0 141.5) scale(-2.9 2.8877551020408165)">
        <g clip-path="url(#clip-path-id-viewbox-item-1)" transform="translate(-0.0 -0.0)">

<g>
	<g>
		<path fill="#C4D9F8" d="M0.506,98c-0.058,0-0.115-0.01-0.172-0.03c-0.263-0.094-0.399-0.382-0.304-0.643    c1.953-5.335,3.783-10.824,5.553-16.132c3.657-10.971,7.439-22.314,12.52-32.937C26.965,29.73,38.487,16.636,52.347,9.336    c0.244-0.13,0.553-0.037,0.684,0.208c0.132,0.245,0.037,0.549-0.21,0.678C39.159,17.419,27.785,30.36,19.018,48.688    c-5.054,10.565-8.826,21.88-12.474,32.822C4.772,86.825,2.94,92.32,0.982,97.669C0.907,97.874,0.713,98,0.506,98z"/>
	</g>
	<g>
		<path fill="#C4D9F8" d="M45.805,34.323c-0.046,0-0.092-0.006-0.139-0.019l-15.824-4.441c-0.269-0.075-0.425-0.353-0.349-0.619    c0.076-0.266,0.353-0.423,0.626-0.346l15.824,4.441c0.269,0.075,0.425,0.353,0.349,0.619    C46.229,34.179,46.027,34.323,45.805,34.323z"/>
	</g>
	<g>
		<path fill="#C4D9F8" d="M48.086,30.826c-0.046,0-0.092-0.006-0.139-0.019l-15.567-4.369c-0.269-0.075-0.425-0.353-0.349-0.619    c0.076-0.266,0.354-0.425,0.626-0.346l15.567,4.369c0.269,0.075,0.425,0.353,0.349,0.619    C48.51,30.681,48.308,30.826,48.086,30.826z"/>
	</g>
	<g>
		<path fill="#C4D9F8" d="M50.368,27.328c-0.046,0-0.092-0.006-0.139-0.019l-14.48-4.064c-0.27-0.075-0.426-0.353-0.35-0.619    c0.076-0.266,0.358-0.423,0.625-0.346l14.482,4.064c0.269,0.075,0.425,0.353,0.349,0.619    C50.792,27.183,50.59,27.328,50.368,27.328z"/>
	</g>
	<g>
		<path fill="#C4D9F8" d="M52.649,23.831c-0.046,0-0.092-0.006-0.139-0.019l-13.517-3.793c-0.269-0.075-0.425-0.353-0.349-0.619    s0.353-0.425,0.626-0.346l13.517,3.793c0.269,0.075,0.425,0.353,0.349,0.619C53.073,23.686,52.871,23.831,52.649,23.831z"/>
	</g>
	<g>
		<path fill="#C4D9F8" d="M54.931,20.333c-0.046,0-0.092-0.006-0.139-0.019l-12.369-3.471c-0.269-0.075-0.425-0.353-0.349-0.619    c0.076-0.266,0.353-0.424,0.626-0.346l12.369,3.471c0.269,0.075,0.425,0.353,0.349,0.619    C55.355,20.189,55.153,20.333,54.931,20.333z"/>
	</g>
	<g>
		<path fill="#C4D9F8" d="M57.212,16.836c-0.046,0-0.092-0.006-0.139-0.019l-10.551-2.961c-0.27-0.075-0.426-0.353-0.35-0.619    c0.076-0.266,0.358-0.423,0.625-0.346l10.553,2.961c0.269,0.075,0.425,0.353,0.349,0.619    C57.636,16.691,57.434,16.836,57.212,16.836z"/>
	</g>
	<g>
		<path fill="#C4D9F8" d="M59.494,13.338c-0.046,0-0.092-0.006-0.139-0.019l-8.335-2.339c-0.269-0.075-0.425-0.353-0.349-0.619    c0.076-0.266,0.352-0.422,0.626-0.346l8.335,2.339c0.269,0.075,0.425,0.353,0.349,0.619    C59.918,13.194,59.716,13.338,59.494,13.338z"/>
	</g>
	<g>
		<path fill="#C4D9F8" d="M29.836,29.833c-0.226,0-0.431-0.15-0.49-0.376l-4.093-15.783c-0.069-0.269,0.094-0.542,0.364-0.611    c0.268-0.07,0.546,0.093,0.616,0.361l4.093,15.783c0.069,0.269-0.094,0.542-0.364,0.611C29.92,29.828,29.877,29.833,29.836,29.833    z"/>
	</g>
	<g>
		<path fill="#C4D9F8" d="M33.009,26.071c-0.226,0-0.431-0.15-0.49-0.376l-3.682-14.196c-0.069-0.269,0.094-0.542,0.364-0.611    c0.267-0.068,0.547,0.093,0.616,0.361l3.682,14.196c0.069,0.269-0.094,0.542-0.364,0.611    C33.093,26.066,33.051,26.071,33.009,26.071z"/>
	</g>
	<g>
		<path fill="#C4D9F8" d="M36.254,22.588c-0.226,0-0.431-0.15-0.49-0.376L32.421,9.324c-0.069-0.269,0.094-0.542,0.364-0.611    c0.268-0.069,0.546,0.093,0.616,0.361l3.343,12.888c0.069,0.269-0.094,0.542-0.364,0.611    C36.338,22.584,36.296,22.588,36.254,22.588z"/>
	</g>
	<g>
		<path fill="#C4D9F8" d="M39.534,19.24c-0.226,0-0.431-0.15-0.49-0.376L36.006,7.15c-0.069-0.269,0.094-0.542,0.364-0.611    c0.268-0.067,0.547,0.093,0.616,0.361l3.038,11.714c0.069,0.269-0.094,0.542-0.363,0.611C39.618,19.235,39.576,19.24,39.534,19.24    z"/>
	</g>
	<g>
		<path fill="#C4D9F8" d="M42.937,16.366c-0.226,0-0.431-0.15-0.49-0.376L39.59,4.976c-0.069-0.269,0.094-0.542,0.364-0.611    c0.268-0.069,0.546,0.092,0.616,0.361l2.857,11.014c0.069,0.269-0.094,0.542-0.363,0.611    C43.021,16.361,42.979,16.366,42.937,16.366z"/>
	</g>
	<g>
		<path fill="#C4D9F8" d="M46.394,13.703c-0.226,0-0.431-0.15-0.49-0.376L43.175,2.801c-0.069-0.269,0.094-0.542,0.364-0.611    c0.268-0.071,0.547,0.093,0.616,0.361l2.729,10.525c0.069,0.269-0.094,0.542-0.363,0.611    C46.478,13.698,46.437,13.703,46.394,13.703z"/>
	</g>
	<g>
		<path fill="#C4D9F8" d="M50.009,11.639c-0.226,0-0.431-0.15-0.49-0.376l-2.76-10.637c-0.069-0.269,0.094-0.542,0.364-0.611    c0.266-0.068,0.547,0.093,0.616,0.361l2.76,10.637c0.069,0.269-0.094,0.542-0.363,0.611C50.093,11.634,50.05,11.639,50.009,11.639    z"/>
	</g>
</g>

        </g>
    </g>
</g>

<!-- ITEM 2 -->
<g>
    <defs>
        
        <clipPath id="clip-path-id-viewbox-item-2">
            <rect x="0.0" y="0.0" width="400.0" height="160.0"/>
        </clipPath>
    </defs>
    <g transform="translate(253.0 547.0) rotate(0.0 612.0 245.0) scale(3.06 3.0625)">
        <g clip-path="url(#clip-path-id-viewbox-item-2)" transform="translate(-0.0 -0.0)">

<polygon fill="#D6D7D8" points="92.55,158.071 15.348,158.071 0,142.294 77.203,142.294 "/>
<path fill="#D62929" d="M296.344,5.678c-1.161,9.181-2.321,18.362-3.482,27.543c1.25-1.253,3.196-1.425,4.967-1.474  c11.301-0.322,11.497,5.995,22.763,5.061c11.266-0.935,34.126-9.616,41.011-18.562c-6.327-2.808-13.471-2.87-20.346-3.704  c-14.374-1.743-28.041-6.993-41.963-10.966c-0.638-0.183-1.355-0.354-1.939-0.042C296.63,3.923,296.447,4.862,296.344,5.678z"/>
<path fill="#151A4F" d="M295.319,23.525c-5.043,3.813-7.864,10.362-7.164,16.638c0.477,4.273,2.444,8.601,1.177,12.71  c-1.029,3.339-3.962,5.678-5.989,8.527c-8.586,12.072,0.068,31.051-9.228,42.587c-4.33,5.374-11.521,7.55-18.383,8.378  c-6.73,0.813-13.582,0.606-20.251-0.609c2.512,11.305,3.22,23.008,2.087,34.535c22.568,0.085,45.409-1.653,66.84-8.71  c1.356-0.446,2.739-0.934,3.82-1.863c1.928-1.658,2.51-4.35,3.014-6.839c6.125-30.289,16.859-59.647,31.721-86.754  C327.199,35.63,311.314,29.428,295.319,23.525z"/>
<linearGradient id="SVGID_1_-i2" gradientUnits="userSpaceOnUse" x1="2445.6006" y1="1239.2324" x2="2796" y2="1239.2324" gradientTransform="matrix(0.2 0 0 0.2 -159.2 -203.2)">
	<stop offset="0" style="stop-color:#E94A47"/>
	<stop offset="1" style="stop-color:#D62929"/>
</linearGradient>
<path fill="url(#SVGID_1_-i2)" d="M341.516,26.93c-3.866,8.412-7.731,16.824-11.596,25.235c1.569-0.822,3.478-0.404,5.183,0.079  c10.877,3.072,21.215,7.954,32.243,10.431c11.028,2.478,23.397,2.237,32.654-4.238c-5.192-4.571-11.99-6.767-18.298-9.619  c-13.189-5.962-24.651-15.059-36.738-23.012c-0.555-0.365-1.185-0.743-1.837-0.62C342.316,25.342,341.86,26.182,341.516,26.93z"/>
<path fill="#23286B" d="M42.251,137.962l-2.685,9.565c0,0,6.392-7.78,6.264-7.589C45.702,140.13,42.251,137.962,42.251,137.962z"/>
<linearGradient id="SVGID_2_-i2" gradientUnits="userSpaceOnUse" x1="2242.479" y1="1333.822" x2="2133.3743" y2="1905.1265" gradientTransform="matrix(0.2 0 0 0.2 -159.2 -203.2)">
	<stop offset="0" style="stop-color:#23286B"/>
	<stop offset="1" style="stop-color:#151A4F"/>
</linearGradient>
<path fill="url(#SVGID_2_-i2)" d="M305.829,76.141c1.481-2.892,1.352-6.297,1.686-9.526c1.086-10.496,7.785-20.248,17.206-25.046  c7.706,12.88,27.25,11.254,39.356,20.149c-13.265,31.819-30.443,62.011-51.027,89.684c-9.821,1.721-28.395,0.331-35.244,1.102  c-29.706,3.349-44.74,1.321-74.574-0.602c6.043-10.884,6.667-24.598,1.637-35.982c10.896-4.415,22.898-8.892,34.116-5.369  c2.848,0.894,5.519,2.279,8.35,3.222c6.879,2.291,14.329,1.868,21.567,1.421c2.634-0.163,5.381-0.361,7.645-1.712  c7.54-4.501,4.025-16.863,9.39-23.807C290.926,83.216,302.111,83.401,305.829,76.141z"/>
<path fill="#FFBEB6" d="M107.608,130.267c-3.503,1.773-7.114,3.336-10.806,4.677c-3.503,1.272-7.161,2.354-10.886,2.215  c-4.281-0.16-9.659-3.007-14.199-3.47c-3.441-0.35-6.206,2.008-7.607,1.786c-4.403-0.93-6.606-2.971-9.332-5.548  c-1.784-1.686-5.962-2.463-8.246-4.017c1.132,4.628-1.543,8.508-4.517,12.233c-1.31,1.64-4.159,3.183-5.071,1.293  c3.336-5.285,5.479-11.316,6.219-17.518c5.453-0.988,11.208-0.247,16.231,2.088c3.124,1.451,6.195,3.555,9.637,3.377  c2.128-0.11,15.981-5.515,18.092-5.816c13.022-1.855,6.276,1.332,14.263-1.547C110.661,121.631,110.121,125.395,107.608,130.267z"/>
<g>
	<polygon fill="#D62929" points="45.601,141.524 41.048,138.974 62.635,100.597 67.188,103.147  "/>
</g>
<path fill="#FFBEB6" d="M69.23,131.29c-0.821-0.717-3.401-1.524-4.48-1.363c-3.834,0.574-5.559,1.683-9.04,1.872  c-4.236,0.23-11.544,2.694-11.494,4.836c0.034,1.389,1.637,2.289,3.011,2.518c1.373,0.229,2.771-0.096,4.125-0.418  c4.995-1.19,9.042-2.134,14.037-3.324c0.978-0.233,2.802-1.334,3.515-2.041C69.619,132.664,69.986,131.95,69.23,131.29z"/>
<path fill="#89B3F4" d="M134.052,80.103c-3.927,6.731-23.725,38.73-25.844,38.683c-10.809-0.246-18.913,1.855-27.284,4.641  c4.161,4.728,6.543,8.858,5.419,15.049c15.212,0.859,19.377,3.14,36.438-2.675c3.667-16.439,18.944-38.61,18.63-55.449  c-0.021-1.144-0.1-2.406-0.899-3.225C138.582,75.147,135.441,77.718,134.052,80.103z"/>
<path fill="#F2A19C" d="M130.772,86.88c1.142-1.639-0.305-6.076-1.481-7.693c-4.471-6.148-9.264-9.624-14.871-14.764  c3.817-1.758,6.969-10.976,8.36-14.934c4.875,5.327,11.26,15.034,18.283,16.742C138.466,73.488,135.003,80.435,130.772,86.88z"/>
<path fill="#FFBEB6" d="M109.198,34.827c-3.226-0.199-6.452-0.398-9.677-0.597c-1.546-0.096-3.143-0.184-4.596,0.348  c-1.023,0.375-1.913,1.035-2.785,1.687c-3.488,2.605-7.2,5.535-8.281,9.746c-1.19,4.641,1.318,9.612,5.032,12.645  c1.291,1.054,2.756,1.967,3.666,3.362c1.312,2.014,1.127,4.878-0.433,6.708c4.292,0.494,7.417,4.474,11.606,5.526  c2.278,0.572,4.678,0.227,6.99-0.188c2.793-0.501,5.618-1.121,8.082-2.525c4.678-2.666,7.471-7.969,7.954-13.321  c0.484-5.353-1.109-10.724-3.58-15.501c-1.043-2.014-2.286-3.997-4.112-5.346C116.293,35.327,112.639,35.04,109.198,34.827z"/>
<path fill="#23286B" d="M123.271,54.514c-3.734-1.511-7.907,0.104-11.915,0.509c-8.22,0.83-15.973-3.516-23.086-7.713  c-1.724-1.017-3.501-2.083-4.642-3.725c-0.911-1.31-1.345-2.903-1.478-4.492c-0.609-7.307,5.935-14.404,13.283-14.407  c1.972-0.001,4.038,0.419,5.854-0.346c3.813-1.607,4.292-7.345,7.999-9.18c4.102-2.031,9.209,2.036,13.461,0.338  c3.438-1.374,4.576-5.811,7.672-7.842c4.152-2.723,9.675-0.069,13.632,2.929c3.958,2.997,8.42,6.589,13.286,5.588  c3.532-0.726,6.17-3.746,9.594-4.879c4.35-1.439,9.006,0.38,13.467,1.426c4.46,1.046,10.065,0.86,12.486-3.021  c2.155,5.831-8.031,9.504-8.361,15.71c-0.231,4.349,4.617,8.052,3.624,12.294c-1.117,4.764-9.058,7.479-7.079,11.957  c0.478,1.081,1.475,1.824,2.267,2.702c3.33,3.691,2.358,10.332-1.89,12.918c-3.154-5.308-7.884-11.388-13.97-10.291  c-3.121,0.563-5.71,3.015-8.869,3.3c-7.297,0.658-11.851-10.095-19.142-9.371c-3.807,0.955-3.328,7.442-6.939,8.979  C129.382,59.235,126.433,55.794,123.271,54.514z"/>
<g>
	<path fill="#23286B" d="M85.472,45.762c-0.109,0-0.217-0.033-0.311-0.103c-3.826-2.839-5.905-7.722-5.298-12.439   c0.609-4.718,3.859-8.917,8.28-10.697c1.511-0.607,3.153-0.953,4.742-1.287c2.804-0.589,5.451-1.145,7.315-3.029   c0.887-0.897,1.552-2.084,2.194-3.232c0.984-1.759,2.002-3.579,3.876-4.518c2.24-1.122,4.714-0.522,7.106,0.059   c2.22,0.538,4.316,1.047,6.2,0.277c2.067-0.846,3.179-2.933,4.358-5.143c1.207-2.264,2.456-4.606,4.849-5.609   c0.264-0.111,0.572,0.013,0.683,0.279c0.112,0.265-0.013,0.57-0.279,0.681c-2.05,0.859-3.157,2.937-4.331,5.138   c-1.213,2.275-2.468,4.629-4.883,5.617c-2.196,0.898-4.558,0.326-6.842-0.228c-2.31-0.56-4.493-1.089-6.39-0.14   c-1.588,0.796-2.485,2.399-3.434,4.094c-0.676,1.209-1.375,2.458-2.362,3.455c-2.084,2.107-5.012,2.721-7.843,3.317   c-1.545,0.324-3.14,0.659-4.567,1.234c-4.014,1.616-7.082,5.58-7.635,9.864c-0.553,4.283,1.411,8.893,4.884,11.47   c0.232,0.172,0.279,0.498,0.108,0.729C85.789,45.689,85.631,45.762,85.472,45.762z"/>
</g>
<linearGradient id="SVGID_3_-i2" gradientUnits="userSpaceOnUse" x1="1709.3475" y1="1296.1277" x2="1679.3578" y2="1703.2242" gradientTransform="matrix(0.2 0 0 0.2 -159.2 -203.2)">
	<stop offset="0" style="stop-color:#A1C3FC"/>
	<stop offset="1" style="stop-color:#89B3F4"/>
</linearGradient>
<path fill="url(#SVGID_3_-i2)" d="M140.765,99.877c-0.466-4.837-1.951-9.52-2.684-14.324c-0.733-4.804-0.638-9.984,1.825-14.178  c2.463-4.193,1.919-9.774,6.447-7.986c4.008,1.583,11.993,8.721,14.098,12.473c5.979,10.654,15.004,19.224,23.89,27.621  c2.599,2.455,5.229,4.934,8.337,6.703c6.546,3.725,14.589,2.992,21.989,1.58c1.933,13.827,3.267,28.665,4.001,42.607  c-22.532,2.408-45.915-4.378-63.638-18.468c-5.852-4.652-11.305-10.411-13.179-17.637  C140.307,112.308,141.356,106.004,140.765,99.877z"/>
<g>
	<path fill="#23286B" d="M90.104,64.183c-0.048,0-0.098,0-0.146-0.001c-0.289-0.005-0.518-0.242-0.512-0.531   c0.005-0.284,0.238-0.511,0.522-0.511c0.038-0.002,0.091,0.001,0.138,0.001c2.744,0,5.46-1.701,6.642-4.173   c0.123-0.26,0.433-0.37,0.696-0.246c0.26,0.124,0.371,0.435,0.247,0.695C96.342,62.239,93.238,64.183,90.104,64.183z"/>
</g>
<path fill="#FFBEB6" d="M122.585,131.233c-2.703,6.212-4.206,12.941-4.401,19.71c-2.887-1.077-5.775-2.152-8.663-3.228  c-1.674-4.015-3.703-7.883-6.057-11.544c-1.017-1.43,6.251-8.444,8.816-13.021C113.5,120.973,119.15,128.539,122.585,131.233z"/>
<linearGradient id="SVGID_4_-i2" gradientUnits="userSpaceOnUse" x1="1270.2711" y1="1587.6918" x2="1362.8049" y2="1507.0562" gradientTransform="matrix(0.1941 -0.0482 0.0482 0.1941 -211.9278 -90.5039)">
	<stop offset="0" style="stop-color:#A1C3FC"/>
	<stop offset="1" style="stop-color:#89B3F4"/>
</linearGradient>
<path fill="url(#SVGID_4_-i2)" d="M107.063,140.978c-1.511,1.243-2.917,2.702-3.377,4.423c-0.901,3.363,1.906,6.307,4.524,8.669  c1.75,1.581,4.875,3.29,6.996,4.325c3.463,1.69,5.81,1.786,7.976,1.449c2.874-0.447,3.164-3.958,3.77-6.448  c0.895-3.667-1.552-5.514-0.656-9.18c0.469-1.926,0.938-3.947,0.319-5.771C125.996,136.621,116.542,133.184,107.063,140.978z"/>
<path fill="#A1C3FC" d="M148.853,64.381c1.38,1.468,1.804,3.526,2.121,5.489c4.741,29.295-3.232,60.568-21.687,85.077  c-1.293,1.717-2.701,3.459-4.659,4.45s-7.291-1.787-7.987-4.836c-1.75-27.967,7.575-51.542,15.58-78.752  c1.131-3.844,2.396-7.884,5.435-10.679C140.692,62.335,146.108,61.461,148.853,64.381z"/>
<ellipse fill="#F2A19C" cx="106.967" cy="64.339" rx="3.222" ry="3.215"/>
<path id="texture-2_14_-i2" fill="#FFFFFF" d="M312.725,61.635c0.116-0.04,0.153-0.117,0.115-0.232  c-0.04-0.116-0.117-0.153-0.233-0.115c-0.116,0.04-0.153,0.117-0.115,0.232l0,0C312.532,61.637,312.647,61.597,312.725,61.635  L312.725,61.635z M325.008,48.044c0.077,0.039,0.193-0.001,0.232-0.079l0,0c0.039-0.077-0.001-0.193-0.079-0.231l0,0  c-0.077-0.039-0.193,0.001-0.232,0.079C324.775,47.929,324.892,48.084,325.008,48.044L325.008,48.044L325.008,48.044z   M318.361,54.496c0.077,0.039,0.156,0.076,0.27,0.037c0.039-0.077,0.076-0.155,0.037-0.27c-0.077-0.039-0.155-0.076-0.27-0.037  C318.245,54.343,318.284,54.458,318.361,54.496z M329.645,75.411c0.117,0.153,0.31,0.152,0.464,0.035s0.152-0.309,0.036-0.463l0,0  c-0.117-0.153-0.31-0.152-0.464-0.035C329.45,75.027,329.49,75.335,329.645,75.411L329.645,75.411z M323.881,69.509  c0.117,0.153,0.31,0.152,0.464,0.035c0.153-0.117,0.152-0.309,0.036-0.463c-0.117-0.153-0.31-0.152-0.464-0.035l0,0  C323.761,69.162,323.763,69.355,323.881,69.509z M318.153,63.527c0.117,0.153,0.31,0.152,0.464,0.035l0,0  c0.153-0.117,0.152-0.309,0.036-0.463l0,0c-0.117-0.153-0.31-0.152-0.464-0.035C318.034,63.181,318.035,63.374,318.153,63.527z   M313.094,81.623c0.153-0.117,0.23-0.272,0.229-0.464c-0.117-0.153-0.272-0.229-0.465-0.228c-0.153,0.117-0.23,0.272-0.191,0.387  C312.708,81.626,312.863,81.702,313.094,81.623L313.094,81.623z M310.025,73.964c0.153-0.117,0.23-0.272,0.229-0.464  c-0.117-0.153-0.272-0.229-0.465-0.228c-0.153,0.117-0.23,0.272-0.191,0.387C309.677,73.889,309.909,74.004,310.025,73.964  L310.025,73.964z M335.804,59.972c0.155,0.076,0.386-0.003,0.462-0.157c0.076-0.155-0.003-0.385-0.158-0.461l0,0  c-0.155-0.076-0.386,0.003-0.462,0.157l0,0C335.569,59.665,335.65,59.895,335.804,59.972z M328.201,56.628  c0.156,0.076,0.386-0.003,0.462-0.157c0.076-0.155-0.003-0.385-0.158-0.461c-0.155-0.076-0.386,0.003-0.462,0.157l0,0  C327.965,56.322,328.045,56.552,328.201,56.628L328.201,56.628z M320.674,53.323c0.156,0.076,0.386-0.003,0.462-0.157l0,0  c0.076-0.155-0.003-0.385-0.158-0.461l0,0c-0.155-0.076-0.386,0.003-0.462,0.157C320.402,53.092,320.519,53.247,320.674,53.323  L320.674,53.323z M305.495,84.338c0.116-0.04,0.308-0.233,0.191-0.387c-0.04-0.116-0.234-0.307-0.388-0.191  c-0.116,0.04-0.308,0.233-0.191,0.387l0,0C305.107,84.341,305.262,84.417,305.495,84.338z M329.535,65.07  c0.156,0.076,0.349,0.075,0.425-0.08c0.076-0.155,0.037-0.27-0.08-0.424l0,0c-0.155-0.076-0.349-0.075-0.425,0.08l0,0  C329.378,64.801,329.38,64.994,329.535,65.07L329.535,65.07z M323.09,61.525c0.156,0.076,0.349,0.075,0.425-0.08  s0.037-0.27-0.08-0.424l0,0c-0.156-0.076-0.349-0.075-0.425,0.08l0,0C322.932,61.257,322.935,61.449,323.09,61.525L323.09,61.525z   M316.683,57.905c0.156,0.076,0.349,0.075,0.425-0.08l0,0c0.076-0.155,0.037-0.27-0.08-0.424l0,0  c-0.156-0.076-0.349-0.075-0.425,0.08l0,0C316.487,57.712,316.527,57.828,316.683,57.905L316.683,57.905z M316.489,74.537  c0.117,0.153,0.31,0.152,0.464,0.035c0.153-0.117,0.152-0.309,0.036-0.463c-0.117-0.153-0.31-0.152-0.464-0.035  C316.37,74.191,316.333,74.461,316.489,74.537L316.489,74.537z M311.884,68.82c0.117,0.153,0.31,0.152,0.426,0.113l0,0  c0.153-0.117,0.152-0.309,0.036-0.463c-0.117-0.153-0.31-0.152-0.464-0.035C311.766,68.472,311.767,68.666,311.884,68.82  L311.884,68.82z M330.593,50.206c0.193-0.001,0.309-0.041,0.308-0.233l0,0c-0.001-0.193-0.118-0.347-0.234-0.307l0,0  c-0.193,0.001-0.348,0.118-0.346,0.311C330.321,49.977,330.437,50.13,330.593,50.206L330.593,50.206L330.593,50.206z   M323.316,49.329c0.193-0.001,0.348-0.118,0.346-0.311c-0.001-0.193-0.118-0.347-0.312-0.345c-0.193,0.001-0.348,0.118-0.308,0.233  C323.004,49.177,323.122,49.331,323.316,49.329C323.237,49.291,323.316,49.329,323.316,49.329L323.316,49.329z M311.14,89.701  c0.117,0.153,0.31,0.152,0.464,0.035s0.152-0.309,0.036-0.463c-0.117-0.153-0.31-0.152-0.464-0.035  C311.021,89.356,311.023,89.548,311.14,89.701L311.14,89.701z M305.796,83.139c0.117,0.153,0.31,0.152,0.464,0.035  c0.153-0.117,0.152-0.309,0.036-0.463c-0.117-0.153-0.31-0.152-0.464-0.035C305.714,82.715,305.678,82.986,305.796,83.139  L305.796,83.139z M328.56,58.44c0.193-0.001,0.348-0.118,0.346-0.311c-0.001-0.193-0.118-0.347-0.312-0.345  c-0.193,0.001-0.348,0.118-0.346,0.311C328.172,58.249,328.367,58.441,328.56,58.44L328.56,58.44z M320.045,57.533  c0.193-0.001,0.348-0.118,0.346-0.311c-0.001-0.193-0.118-0.347-0.312-0.345c-0.193,0.001-0.348,0.118-0.346,0.311  C319.773,57.304,319.852,57.534,320.045,57.533L320.045,57.533z M319.156,74.403c0.156,0.076,0.386-0.003,0.462-0.157  c0.076-0.155-0.003-0.385-0.158-0.461c-0.155-0.076-0.386,0.003-0.462,0.157l0,0C318.921,74.096,319.002,74.327,319.156,74.403  L319.156,74.403L319.156,74.403z M311.702,70.365c0.156,0.076,0.386-0.003,0.462-0.157l0,0c0.076-0.155-0.003-0.385-0.158-0.461l0,0  c-0.156-0.076-0.386,0.003-0.462,0.157C311.467,70.057,311.469,70.25,311.702,70.365L311.702,70.365z M317.725,80.047  c0.156,0.076,0.386-0.003,0.462-0.157c0.076-0.155-0.003-0.385-0.158-0.461c-0.156-0.076-0.349-0.075-0.462,0.157  C317.492,79.741,317.571,79.971,317.725,80.047L317.725,80.047z M310.424,75.698c0.155,0.076,0.386-0.003,0.462-0.157  c0.076-0.155,0.075-0.348-0.158-0.461c-0.155-0.076-0.386,0.003-0.541,0.12C310.19,75.392,310.269,75.622,310.424,75.698  L310.424,75.698z M319.538,62.476c0.193-0.001,0.348-0.118,0.424-0.273c-0.001-0.193-0.118-0.347-0.273-0.423  c-0.193,0.001-0.348,0.118-0.424,0.273l0,0C319.189,62.209,319.383,62.4,319.538,62.476L319.538,62.476L319.538,62.476z"/>

        </g>
    </g>
</g>

<!-- ITEM 3 -->
<g>
    <defs>
        
        <clipPath id="clip-path-id-viewbox-item-3">
            <rect x="0.0" y="0.0" width="100.0" height="100.0"/>
        </clipPath>
    </defs>
    <g transform="translate(269.0 549.0) rotate(0.0 6.0 6.0) scale(0.12 0.12)">
        <g clip-path="url(#clip-path-id-viewbox-item-3)" transform="translate(-0.0 -0.0)">

<circle fill="#A1C3FC" cx="50" cy="50" r="50"/>

        </g>
    </g>
</g>

<!-- ITEM 4 -->
<g>
    <defs>
        
        <clipPath id="clip-path-id-viewbox-item-4">
            <rect x="0.0" y="0.0" width="104.791" height="52.08"/>
        </clipPath>
    </defs>
    <g transform="translate(164.0 69.0) rotate(0.0 164.5 81.5) scale(3.1395825977421725 3.129800307219662)">
        <g clip-path="url(#clip-path-id-viewbox-item-4)" transform="translate(-0.0 -0.0)">

<g>
	<path fill="#A1C3FC" d="M47.917,52.08c-7.028,0-14.03-0.068-20.763-0.306c-1.215-0.042-2.545-0.04-3.955-0.037   c-4.755,0.015-10.157,0.023-14.023-1.752c-4.86-2.232-6.99-3.686-8.501-9.166C-1.504,32.92,1.897,28.2,6.568,22.851   c6.108-6.997,14.88-7.53,24.938-7.497c0.552,0.002,0.998,0.452,0.996,1.004c-0.002,0.551-0.449,0.996-1,0.996   c-0.001,0-0.003,0-0.004,0c-9.491-0.027-17.87,0.451-23.425,6.812c-5.211,5.969-7.238,9.713-5.471,16.121   c1.305,4.729,2.878,5.8,7.407,7.88c3.467,1.592,8.622,1.579,13.185,1.57c1.427-0.004,2.776-0.006,4.03,0.038   c11.265,0.397,23.313,0.318,34.965,0.242c6.009-0.039,11.971-0.111,17.621-0.019c9.143,0.15,17.032,0.276,21.144-7.382   c3.237-6.029,2.202-11.901-2.992-16.98c-5.039-4.927-13.464-6.026-19.601-2.552c-0.406,0.229-0.916,0.149-1.232-0.196   c-0.314-0.345-0.349-0.862-0.082-1.245c2.846-4.089,0.783-10.023-2.726-13.771c-4.489-4.797-12.316-6.939-19.488-5.325   c-8.914,2.005-15.771,9.198-19.31,20.252c-0.168,0.526-0.729,0.816-1.257,0.648c-0.526-0.168-0.816-0.731-0.647-1.257   C38.695,6.326,48.814,1.851,54.394,0.596c7.959-1.79,16.353,0.529,21.388,5.909c3.382,3.613,5.544,9.067,4.171,13.656   c6.516-2.356,14.432-0.819,19.407,4.046c5.813,5.685,7.006,12.559,3.355,19.356c-4.688,8.73-13.554,8.589-22.938,8.435   c-5.637-0.092-11.582-0.02-17.576,0.019C57.481,52.048,52.693,52.08,47.917,52.08z"/>
</g>

        </g>
    </g>
</g>

<!-- ITEM 5 -->
<g>
    <defs>
        
        <clipPath id="clip-path-id-viewbox-item-5">
            <rect x="0.0" y="0.0" width="100.0" height="100.0"/>
        </clipPath>
    </defs>
    <g transform="translate(231.0 425.0) rotate(0.0 7.5 7.5) scale(0.15 0.15)">
        <g clip-path="url(#clip-path-id-viewbox-item-5)" transform="translate(-0.0 -0.0)">

<circle fill="#A1C3FC" cx="50" cy="50" r="50"/>

        </g>
    </g>
</g>

<!-- ITEM 6 -->
<g>
    <defs>
        
        <clipPath id="clip-path-id-viewbox-item-6">
            <rect x="0.0" y="0.0" width="104.791" height="52.08"/>
        </clipPath>
    </defs>
    <g transform="translate(601.0 206.0) rotate(0.0 97.0 48.0) scale(1.8513040242005516 1.8433179723502304)">
        <g clip-path="url(#clip-path-id-viewbox-item-6)" transform="translate(-0.0 -0.0)">

<g>
	<path fill="#c8dcf9" d="M47.917,52.08c-7.028,0-14.03-0.068-20.763-0.306c-1.215-0.042-2.545-0.04-3.955-0.037   c-4.755,0.015-10.157,0.023-14.023-1.752c-4.86-2.232-6.99-3.686-8.501-9.166C-1.504,32.92,1.897,28.2,6.568,22.851   c6.108-6.997,14.88-7.53,24.938-7.497c0.552,0.002,0.998,0.452,0.996,1.004c-0.002,0.551-0.449,0.996-1,0.996   c-0.001,0-0.003,0-0.004,0c-9.491-0.027-17.87,0.451-23.425,6.812c-5.211,5.969-7.238,9.713-5.471,16.121   c1.305,4.729,2.878,5.8,7.407,7.88c3.467,1.592,8.622,1.579,13.185,1.57c1.427-0.004,2.776-0.006,4.03,0.038   c11.265,0.397,23.313,0.318,34.965,0.242c6.009-0.039,11.971-0.111,17.621-0.019c9.143,0.15,17.032,0.276,21.144-7.382   c3.237-6.029,2.202-11.901-2.992-16.98c-5.039-4.927-13.464-6.026-19.601-2.552c-0.406,0.229-0.916,0.149-1.232-0.196   c-0.314-0.345-0.349-0.862-0.082-1.245c2.846-4.089,0.783-10.023-2.726-13.771c-4.489-4.797-12.316-6.939-19.488-5.325   c-8.914,2.005-15.771,9.198-19.31,20.252c-0.168,0.526-0.729,0.816-1.257,0.648c-0.526-0.168-0.816-0.731-0.647-1.257   C38.695,6.326,48.814,1.851,54.394,0.596c7.959-1.79,16.353,0.529,21.388,5.909c3.382,3.613,5.544,9.067,4.171,13.656   c6.516-2.356,14.432-0.819,19.407,4.046c5.813,5.685,7.006,12.559,3.355,19.356c-4.688,8.73-13.554,8.589-22.938,8.435   c-5.637-0.092-11.582-0.02-17.576,0.019C57.481,52.048,52.693,52.08,47.917,52.08z"/>
</g>

        </g>
    </g>
</g>

<!-- ITEM 7 -->
<g>
    <defs>
        
        <clipPath id="clip-path-id-viewbox-item-7">
            <rect x="0.0" y="0.0" width="104.791" height="52.08"/>
        </clipPath>
    </defs>
    <g transform="translate(1081.0 96.0) rotate(0.0 128.5 64.0) scale(2.452500691853308 2.457757296466974)">
        <g clip-path="url(#clip-path-id-viewbox-item-7)" transform="translate(-0.0 -0.0)">

<g>
	<path fill="#A1C3FC" d="M47.917,52.08c-7.028,0-14.03-0.068-20.763-0.306c-1.215-0.042-2.545-0.04-3.955-0.037   c-4.755,0.015-10.157,0.023-14.023-1.752c-4.86-2.232-6.99-3.686-8.501-9.166C-1.504,32.92,1.897,28.2,6.568,22.851   c6.108-6.997,14.88-7.53,24.938-7.497c0.552,0.002,0.998,0.452,0.996,1.004c-0.002,0.551-0.449,0.996-1,0.996   c-0.001,0-0.003,0-0.004,0c-9.491-0.027-17.87,0.451-23.425,6.812c-5.211,5.969-7.238,9.713-5.471,16.121   c1.305,4.729,2.878,5.8,7.407,7.88c3.467,1.592,8.622,1.579,13.185,1.57c1.427-0.004,2.776-0.006,4.03,0.038   c11.265,0.397,23.313,0.318,34.965,0.242c6.009-0.039,11.971-0.111,17.621-0.019c9.143,0.15,17.032,0.276,21.144-7.382   c3.237-6.029,2.202-11.901-2.992-16.98c-5.039-4.927-13.464-6.026-19.601-2.552c-0.406,0.229-0.916,0.149-1.232-0.196   c-0.314-0.345-0.349-0.862-0.082-1.245c2.846-4.089,0.783-10.023-2.726-13.771c-4.489-4.797-12.316-6.939-19.488-5.325   c-8.914,2.005-15.771,9.198-19.31,20.252c-0.168,0.526-0.729,0.816-1.257,0.648c-0.526-0.168-0.816-0.731-0.647-1.257   C38.695,6.326,48.814,1.851,54.394,0.596c7.959-1.79,16.353,0.529,21.388,5.909c3.382,3.613,5.544,9.067,4.171,13.656   c6.516-2.356,14.432-0.819,19.407,4.046c5.813,5.685,7.006,12.559,3.355,19.356c-4.688,8.73-13.554,8.589-22.938,8.435   c-5.637-0.092-11.582-0.02-17.576,0.019C57.481,52.048,52.693,52.08,47.917,52.08z"/>
</g>

        </g>
    </g>
</g>

<!-- ITEM 8 -->
<g>
    <defs>
        
        <clipPath id="clip-path-id-viewbox-item-8">
            <rect x="0.0" y="0.0" width="100.0" height="100.0"/>
        </clipPath>
    </defs>
    <g transform="translate(107.0 893.0) rotate(0.0 8.0 8.0) scale(0.16 0.16)">
        <g clip-path="url(#clip-path-id-viewbox-item-8)" transform="translate(-0.0 -0.0)">

<circle fill="#A1C3FC" cx="50" cy="50" r="50"/>

        </g>
    </g>
</g>

<!-- ITEM 9 -->
<g>
    <defs>
        
        <clipPath id="clip-path-id-viewbox-item-9">
            <rect x="0.0" y="0.0" width="100.0" height="100.0"/>
        </clipPath>
    </defs>
    <g transform="translate(72.0 324.0) rotate(0.0 6.5 6.5) scale(0.13 0.13)">
        <g clip-path="url(#clip-path-id-viewbox-item-9)" transform="translate(-0.0 -0.0)">

<circle fill="#A1C3FC" cx="50" cy="50" r="50"/>

        </g>
    </g>
</g>

<!-- ITEM 10 -->
<g>
    <defs>
        
        <clipPath id="clip-path-id-viewbox-item-10">
            <rect x="0.0" y="0.0" width="100.0" height="100.0"/>
        </clipPath>
    </defs>
    <g transform="translate(55.0 358.0) rotate(0.0 7.5 7.5) scale(0.15 0.15)">
        <g clip-path="url(#clip-path-id-viewbox-item-10)" transform="translate(-0.0 -0.0)">

<circle fill="#A1C3FC" cx="50" cy="50" r="50"/>

        </g>
    </g>
</g>

<!-- ITEM 11 -->
<g>
    <defs>
        
        <clipPath id="clip-path-id-viewbox-item-11">
            <rect x="0.0" y="0.0" width="100.0" height="100.0"/>
        </clipPath>
    </defs>
    <g transform="translate(607.0 433.0) rotate(0.0 7.5 7.5) scale(0.15 0.15)">
        <g clip-path="url(#clip-path-id-viewbox-item-11)" transform="translate(-0.0 -0.0)">

<circle fill="#A1C3FC" cx="50" cy="50" r="50"/>

        </g>
    </g>
</g>

              </svg>